G04 #@! TF.GenerationSoftware,KiCad,Pcbnew,5.1.5-5.1.5*
G04 #@! TF.CreationDate,2020-03-08T16:14:12+01:00*
G04 #@! TF.ProjectId,pcb,7063622e-6b69-4636-9164-5f7063625858,rev?*
G04 #@! TF.SameCoordinates,Original*
G04 #@! TF.FileFunction,Soldermask,Bot*
G04 #@! TF.FilePolarity,Negative*
%FSLAX46Y46*%
G04 Gerber Fmt 4.6, Leading zero omitted, Abs format (unit mm)*
G04 Created by KiCad (PCBNEW 5.1.5-5.1.5) date 2020-03-08 16:14:12*
%MOMM*%
%LPD*%
G04 APERTURE LIST*
%ADD10C,0.100000*%
G04 APERTURE END LIST*
D10*
G36*
X61237395Y-96875546D02*
G01*
X61410466Y-96947234D01*
X61410467Y-96947235D01*
X61566227Y-97051310D01*
X61698690Y-97183773D01*
X61698691Y-97183775D01*
X61802766Y-97339534D01*
X61874454Y-97512605D01*
X61911000Y-97696333D01*
X61911000Y-97883667D01*
X61874454Y-98067395D01*
X61802766Y-98240466D01*
X61802765Y-98240467D01*
X61698690Y-98396227D01*
X61566227Y-98528690D01*
X61487818Y-98581081D01*
X61410466Y-98632766D01*
X61237395Y-98704454D01*
X61053667Y-98741000D01*
X60866333Y-98741000D01*
X60682605Y-98704454D01*
X60509534Y-98632766D01*
X60432182Y-98581081D01*
X60353773Y-98528690D01*
X60221310Y-98396227D01*
X60117235Y-98240467D01*
X60117234Y-98240466D01*
X60045546Y-98067395D01*
X60009000Y-97883667D01*
X60009000Y-97696333D01*
X60045546Y-97512605D01*
X60117234Y-97339534D01*
X60221309Y-97183775D01*
X60221310Y-97183773D01*
X60353773Y-97051310D01*
X60509533Y-96947235D01*
X60509534Y-96947234D01*
X60682605Y-96875546D01*
X60866333Y-96839000D01*
X61053667Y-96839000D01*
X61237395Y-96875546D01*
G37*
G36*
X73341000Y-98741000D02*
G01*
X71439000Y-98741000D01*
X71439000Y-96839000D01*
X73341000Y-96839000D01*
X73341000Y-98741000D01*
G37*
G36*
X80287395Y-96875546D02*
G01*
X80460466Y-96947234D01*
X80460467Y-96947235D01*
X80616227Y-97051310D01*
X80748690Y-97183773D01*
X80748691Y-97183775D01*
X80852766Y-97339534D01*
X80924454Y-97512605D01*
X80961000Y-97696333D01*
X80961000Y-97883667D01*
X80924454Y-98067395D01*
X80852766Y-98240466D01*
X80852765Y-98240467D01*
X80748690Y-98396227D01*
X80616227Y-98528690D01*
X80537818Y-98581081D01*
X80460466Y-98632766D01*
X80287395Y-98704454D01*
X80103667Y-98741000D01*
X79916333Y-98741000D01*
X79732605Y-98704454D01*
X79559534Y-98632766D01*
X79482182Y-98581081D01*
X79403773Y-98528690D01*
X79271310Y-98396227D01*
X79167235Y-98240467D01*
X79167234Y-98240466D01*
X79095546Y-98067395D01*
X79059000Y-97883667D01*
X79059000Y-97696333D01*
X79095546Y-97512605D01*
X79167234Y-97339534D01*
X79271309Y-97183775D01*
X79271310Y-97183773D01*
X79403773Y-97051310D01*
X79559533Y-96947235D01*
X79559534Y-96947234D01*
X79732605Y-96875546D01*
X79916333Y-96839000D01*
X80103667Y-96839000D01*
X80287395Y-96875546D01*
G37*
G36*
X54291000Y-98741000D02*
G01*
X52389000Y-98741000D01*
X52389000Y-96839000D01*
X54291000Y-96839000D01*
X54291000Y-98741000D01*
G37*
G36*
X74961294Y-80597236D02*
G01*
X75046471Y-80603753D01*
X75086253Y-80614879D01*
X75293275Y-80672777D01*
X75521870Y-80788625D01*
X75723472Y-80946843D01*
X75890334Y-81141353D01*
X76016043Y-81364678D01*
X76094358Y-81603931D01*
X76095768Y-81608239D01*
X76123060Y-81834599D01*
X76126444Y-81862667D01*
X76106895Y-82118195D01*
X76083741Y-82200983D01*
X76037870Y-82365000D01*
X75999559Y-82440596D01*
X75951050Y-82536316D01*
X74673454Y-84541738D01*
X74673452Y-84541740D01*
X74554880Y-84692826D01*
X74360373Y-84859686D01*
X74223755Y-84936587D01*
X74137045Y-84985396D01*
X73899834Y-85063042D01*
X73893484Y-85065121D01*
X73639057Y-85095797D01*
X73639056Y-85095797D01*
X73383529Y-85076248D01*
X73136725Y-85007223D01*
X73136724Y-85007223D01*
X73136722Y-85007222D01*
X72908135Y-84891378D01*
X72908133Y-84891377D01*
X72908130Y-84891375D01*
X72706528Y-84733157D01*
X72706524Y-84733154D01*
X72539667Y-84538650D01*
X72413958Y-84315323D01*
X72413957Y-84315322D01*
X72334233Y-84071764D01*
X72334232Y-84071761D01*
X72303556Y-83817334D01*
X72303556Y-83817333D01*
X72323105Y-83561806D01*
X72392130Y-83315002D01*
X72392130Y-83315001D01*
X72472770Y-83155880D01*
X72478950Y-83143685D01*
X73756545Y-81138262D01*
X73875119Y-80987175D01*
X74019052Y-80863701D01*
X74069630Y-80820312D01*
X74292948Y-80694606D01*
X74292954Y-80694604D01*
X74536511Y-80614880D01*
X74536512Y-80614880D01*
X74536515Y-80614879D01*
X74790941Y-80584203D01*
X74790943Y-80584203D01*
X74961294Y-80597236D01*
G37*
G36*
X55911294Y-80597236D02*
G01*
X55996471Y-80603753D01*
X56036253Y-80614879D01*
X56243275Y-80672777D01*
X56471870Y-80788625D01*
X56673472Y-80946843D01*
X56840334Y-81141353D01*
X56966043Y-81364678D01*
X57044358Y-81603931D01*
X57045768Y-81608239D01*
X57073060Y-81834599D01*
X57076444Y-81862667D01*
X57056895Y-82118195D01*
X57033741Y-82200983D01*
X56987870Y-82365000D01*
X56949559Y-82440596D01*
X56901050Y-82536316D01*
X55623454Y-84541738D01*
X55623452Y-84541740D01*
X55504880Y-84692826D01*
X55310373Y-84859686D01*
X55173755Y-84936587D01*
X55087045Y-84985396D01*
X54849834Y-85063042D01*
X54843484Y-85065121D01*
X54589057Y-85095797D01*
X54589056Y-85095797D01*
X54333529Y-85076248D01*
X54086725Y-85007223D01*
X54086724Y-85007223D01*
X54086722Y-85007222D01*
X53858135Y-84891378D01*
X53858133Y-84891377D01*
X53858130Y-84891375D01*
X53656528Y-84733157D01*
X53656524Y-84733154D01*
X53489667Y-84538650D01*
X53363958Y-84315323D01*
X53363957Y-84315322D01*
X53284233Y-84071764D01*
X53284232Y-84071761D01*
X53253556Y-83817334D01*
X53253556Y-83817333D01*
X53273105Y-83561806D01*
X53342130Y-83315002D01*
X53342130Y-83315001D01*
X53422770Y-83155880D01*
X53428950Y-83143685D01*
X54706545Y-81138262D01*
X54825119Y-80987175D01*
X54969052Y-80863701D01*
X55019630Y-80820312D01*
X55242948Y-80694606D01*
X55242954Y-80694604D01*
X55486511Y-80614880D01*
X55486512Y-80614880D01*
X55486515Y-80614879D01*
X55740941Y-80584203D01*
X55740943Y-80584203D01*
X55911294Y-80597236D01*
G37*
G36*
X80351379Y-80018813D02*
G01*
X80590991Y-80109713D01*
X80808265Y-80245613D01*
X80994852Y-80421288D01*
X81106209Y-80577550D01*
X81143580Y-80629990D01*
X81248735Y-80863697D01*
X81248736Y-80863701D01*
X81306276Y-81113428D01*
X81312058Y-81305394D01*
X81312057Y-81305402D01*
X81263916Y-82011571D01*
X81232135Y-82200983D01*
X81141235Y-82440595D01*
X81005335Y-82657869D01*
X80829660Y-82844456D01*
X80673398Y-82955813D01*
X80620958Y-82993184D01*
X80387251Y-83098339D01*
X80387247Y-83098340D01*
X80137521Y-83155880D01*
X79881366Y-83163594D01*
X79881362Y-83163594D01*
X79628621Y-83121187D01*
X79389009Y-83030287D01*
X79171735Y-82894387D01*
X79118703Y-82844456D01*
X78985148Y-82718712D01*
X78855166Y-82536315D01*
X78836420Y-82510010D01*
X78731265Y-82276303D01*
X78673724Y-82026571D01*
X78673272Y-82011571D01*
X78667942Y-81834608D01*
X78716084Y-81128428D01*
X78739785Y-80987175D01*
X78747865Y-80939017D01*
X78838765Y-80699405D01*
X78974665Y-80482131D01*
X79031950Y-80421288D01*
X79150340Y-80295544D01*
X79306602Y-80184187D01*
X79359042Y-80146816D01*
X79592749Y-80041661D01*
X79592753Y-80041660D01*
X79842479Y-79984120D01*
X80098634Y-79976406D01*
X80098638Y-79976406D01*
X80351379Y-80018813D01*
G37*
G36*
X61301379Y-80018813D02*
G01*
X61540991Y-80109713D01*
X61758265Y-80245613D01*
X61944852Y-80421288D01*
X62056209Y-80577550D01*
X62093580Y-80629990D01*
X62198735Y-80863697D01*
X62198736Y-80863701D01*
X62256276Y-81113428D01*
X62262058Y-81305394D01*
X62262057Y-81305402D01*
X62213916Y-82011571D01*
X62182135Y-82200983D01*
X62091235Y-82440595D01*
X61955335Y-82657869D01*
X61779660Y-82844456D01*
X61623398Y-82955813D01*
X61570958Y-82993184D01*
X61337251Y-83098339D01*
X61337247Y-83098340D01*
X61087521Y-83155880D01*
X60831366Y-83163594D01*
X60831362Y-83163594D01*
X60578621Y-83121187D01*
X60339009Y-83030287D01*
X60121735Y-82894387D01*
X60068703Y-82844456D01*
X59935148Y-82718712D01*
X59805166Y-82536315D01*
X59786420Y-82510010D01*
X59681265Y-82276303D01*
X59623724Y-82026571D01*
X59623272Y-82011571D01*
X59617942Y-81834608D01*
X59666084Y-81128428D01*
X59689785Y-80987175D01*
X59697865Y-80939017D01*
X59788765Y-80699405D01*
X59924665Y-80482131D01*
X59981950Y-80421288D01*
X60100340Y-80295544D01*
X60256602Y-80184187D01*
X60309042Y-80146816D01*
X60542749Y-80041661D01*
X60542753Y-80041660D01*
X60792479Y-79984120D01*
X61048634Y-79976406D01*
X61048638Y-79976406D01*
X61301379Y-80018813D01*
G37*
G36*
X54291000Y-75881000D02*
G01*
X52389000Y-75881000D01*
X52389000Y-73979000D01*
X54291000Y-73979000D01*
X54291000Y-75881000D01*
G37*
G36*
X73341000Y-75881000D02*
G01*
X71439000Y-75881000D01*
X71439000Y-73979000D01*
X73341000Y-73979000D01*
X73341000Y-75881000D01*
G37*
G36*
X80287395Y-74015546D02*
G01*
X80460466Y-74087234D01*
X80460467Y-74087235D01*
X80616227Y-74191310D01*
X80748690Y-74323773D01*
X80748691Y-74323775D01*
X80852766Y-74479534D01*
X80924454Y-74652605D01*
X80961000Y-74836333D01*
X80961000Y-75023667D01*
X80924454Y-75207395D01*
X80852766Y-75380466D01*
X80852765Y-75380467D01*
X80748690Y-75536227D01*
X80616227Y-75668690D01*
X80537818Y-75721081D01*
X80460466Y-75772766D01*
X80287395Y-75844454D01*
X80103667Y-75881000D01*
X79916333Y-75881000D01*
X79732605Y-75844454D01*
X79559534Y-75772766D01*
X79482182Y-75721081D01*
X79403773Y-75668690D01*
X79271310Y-75536227D01*
X79167235Y-75380467D01*
X79167234Y-75380466D01*
X79095546Y-75207395D01*
X79059000Y-75023667D01*
X79059000Y-74836333D01*
X79095546Y-74652605D01*
X79167234Y-74479534D01*
X79271309Y-74323775D01*
X79271310Y-74323773D01*
X79403773Y-74191310D01*
X79559533Y-74087235D01*
X79559534Y-74087234D01*
X79732605Y-74015546D01*
X79916333Y-73979000D01*
X80103667Y-73979000D01*
X80287395Y-74015546D01*
G37*
G36*
X61237395Y-74015546D02*
G01*
X61410466Y-74087234D01*
X61410467Y-74087235D01*
X61566227Y-74191310D01*
X61698690Y-74323773D01*
X61698691Y-74323775D01*
X61802766Y-74479534D01*
X61874454Y-74652605D01*
X61911000Y-74836333D01*
X61911000Y-75023667D01*
X61874454Y-75207395D01*
X61802766Y-75380466D01*
X61802765Y-75380467D01*
X61698690Y-75536227D01*
X61566227Y-75668690D01*
X61487818Y-75721081D01*
X61410466Y-75772766D01*
X61237395Y-75844454D01*
X61053667Y-75881000D01*
X60866333Y-75881000D01*
X60682605Y-75844454D01*
X60509534Y-75772766D01*
X60432182Y-75721081D01*
X60353773Y-75668690D01*
X60221310Y-75536227D01*
X60117235Y-75380467D01*
X60117234Y-75380466D01*
X60045546Y-75207395D01*
X60009000Y-75023667D01*
X60009000Y-74836333D01*
X60045546Y-74652605D01*
X60117234Y-74479534D01*
X60221309Y-74323775D01*
X60221310Y-74323773D01*
X60353773Y-74191310D01*
X60509533Y-74087235D01*
X60509534Y-74087234D01*
X60682605Y-74015546D01*
X60866333Y-73979000D01*
X61053667Y-73979000D01*
X61237395Y-74015546D01*
G37*
G36*
X18083765Y-68848620D02*
G01*
X18273288Y-68927123D01*
X18443854Y-69041092D01*
X18588908Y-69186146D01*
X18702877Y-69356712D01*
X18781380Y-69546235D01*
X18821400Y-69747431D01*
X18821400Y-69952569D01*
X18781380Y-70153765D01*
X18702877Y-70343288D01*
X18588908Y-70513854D01*
X18443854Y-70658908D01*
X18273288Y-70772877D01*
X18273287Y-70772878D01*
X18273286Y-70772878D01*
X18083765Y-70851380D01*
X17882570Y-70891400D01*
X17677430Y-70891400D01*
X17476235Y-70851380D01*
X17286714Y-70772878D01*
X17286713Y-70772878D01*
X17286712Y-70772877D01*
X17116146Y-70658908D01*
X16971092Y-70513854D01*
X16857123Y-70343288D01*
X16778620Y-70153765D01*
X16738600Y-69952569D01*
X16738600Y-69747431D01*
X16778620Y-69546235D01*
X16857123Y-69356712D01*
X16971092Y-69186146D01*
X17116146Y-69041092D01*
X17286712Y-68927123D01*
X17476235Y-68848620D01*
X17677430Y-68808600D01*
X17882570Y-68808600D01*
X18083765Y-68848620D01*
G37*
G36*
X33323765Y-68848620D02*
G01*
X33513288Y-68927123D01*
X33683854Y-69041092D01*
X33828908Y-69186146D01*
X33942877Y-69356712D01*
X34021380Y-69546235D01*
X34061400Y-69747431D01*
X34061400Y-69952569D01*
X34021380Y-70153765D01*
X33942877Y-70343288D01*
X33828908Y-70513854D01*
X33683854Y-70658908D01*
X33513288Y-70772877D01*
X33513287Y-70772878D01*
X33513286Y-70772878D01*
X33323765Y-70851380D01*
X33122570Y-70891400D01*
X32917430Y-70891400D01*
X32716235Y-70851380D01*
X32526714Y-70772878D01*
X32526713Y-70772878D01*
X32526712Y-70772877D01*
X32356146Y-70658908D01*
X32211092Y-70513854D01*
X32097123Y-70343288D01*
X32018620Y-70153765D01*
X31978600Y-69952569D01*
X31978600Y-69747431D01*
X32018620Y-69546235D01*
X32097123Y-69356712D01*
X32211092Y-69186146D01*
X32356146Y-69041092D01*
X32526712Y-68927123D01*
X32716235Y-68848620D01*
X32917430Y-68808600D01*
X33122570Y-68808600D01*
X33323765Y-68848620D01*
G37*
G36*
X18083765Y-66308620D02*
G01*
X18273288Y-66387123D01*
X18443854Y-66501092D01*
X18588908Y-66646146D01*
X18702877Y-66816712D01*
X18781380Y-67006235D01*
X18821400Y-67207431D01*
X18821400Y-67412569D01*
X18781380Y-67613765D01*
X18702877Y-67803288D01*
X18588908Y-67973854D01*
X18443854Y-68118908D01*
X18273288Y-68232877D01*
X18273287Y-68232878D01*
X18273286Y-68232878D01*
X18083765Y-68311380D01*
X17882570Y-68351400D01*
X17677430Y-68351400D01*
X17476235Y-68311380D01*
X17286714Y-68232878D01*
X17286713Y-68232878D01*
X17286712Y-68232877D01*
X17116146Y-68118908D01*
X16971092Y-67973854D01*
X16857123Y-67803288D01*
X16778620Y-67613765D01*
X16738600Y-67412569D01*
X16738600Y-67207431D01*
X16778620Y-67006235D01*
X16857123Y-66816712D01*
X16971092Y-66646146D01*
X17116146Y-66501092D01*
X17286712Y-66387123D01*
X17476235Y-66308620D01*
X17677430Y-66268600D01*
X17882570Y-66268600D01*
X18083765Y-66308620D01*
G37*
G36*
X33323765Y-66308620D02*
G01*
X33513288Y-66387123D01*
X33683854Y-66501092D01*
X33828908Y-66646146D01*
X33942877Y-66816712D01*
X34021380Y-67006235D01*
X34061400Y-67207431D01*
X34061400Y-67412569D01*
X34021380Y-67613765D01*
X33942877Y-67803288D01*
X33828908Y-67973854D01*
X33683854Y-68118908D01*
X33513288Y-68232877D01*
X33513287Y-68232878D01*
X33513286Y-68232878D01*
X33323765Y-68311380D01*
X33122570Y-68351400D01*
X32917430Y-68351400D01*
X32716235Y-68311380D01*
X32526714Y-68232878D01*
X32526713Y-68232878D01*
X32526712Y-68232877D01*
X32356146Y-68118908D01*
X32211092Y-67973854D01*
X32097123Y-67803288D01*
X32018620Y-67613765D01*
X31978600Y-67412569D01*
X31978600Y-67207431D01*
X32018620Y-67006235D01*
X32097123Y-66816712D01*
X32211092Y-66646146D01*
X32356146Y-66501092D01*
X32526712Y-66387123D01*
X32716235Y-66308620D01*
X32917430Y-66268600D01*
X33122570Y-66268600D01*
X33323765Y-66308620D01*
G37*
G36*
X18083765Y-63768620D02*
G01*
X18273288Y-63847123D01*
X18443854Y-63961092D01*
X18588908Y-64106146D01*
X18702877Y-64276712D01*
X18781380Y-64466235D01*
X18821400Y-64667431D01*
X18821400Y-64872569D01*
X18781380Y-65073765D01*
X18702877Y-65263288D01*
X18588908Y-65433854D01*
X18443854Y-65578908D01*
X18273288Y-65692877D01*
X18273287Y-65692878D01*
X18273286Y-65692878D01*
X18083765Y-65771380D01*
X17882570Y-65811400D01*
X17677430Y-65811400D01*
X17476235Y-65771380D01*
X17286714Y-65692878D01*
X17286713Y-65692878D01*
X17286712Y-65692877D01*
X17116146Y-65578908D01*
X16971092Y-65433854D01*
X16857123Y-65263288D01*
X16778620Y-65073765D01*
X16738600Y-64872569D01*
X16738600Y-64667431D01*
X16778620Y-64466235D01*
X16857123Y-64276712D01*
X16971092Y-64106146D01*
X17116146Y-63961092D01*
X17286712Y-63847123D01*
X17476235Y-63768620D01*
X17677430Y-63728600D01*
X17882570Y-63728600D01*
X18083765Y-63768620D01*
G37*
G36*
X33323765Y-63768620D02*
G01*
X33513288Y-63847123D01*
X33683854Y-63961092D01*
X33828908Y-64106146D01*
X33942877Y-64276712D01*
X34021380Y-64466235D01*
X34061400Y-64667431D01*
X34061400Y-64872569D01*
X34021380Y-65073765D01*
X33942877Y-65263288D01*
X33828908Y-65433854D01*
X33683854Y-65578908D01*
X33513288Y-65692877D01*
X33513287Y-65692878D01*
X33513286Y-65692878D01*
X33323765Y-65771380D01*
X33122570Y-65811400D01*
X32917430Y-65811400D01*
X32716235Y-65771380D01*
X32526714Y-65692878D01*
X32526713Y-65692878D01*
X32526712Y-65692877D01*
X32356146Y-65578908D01*
X32211092Y-65433854D01*
X32097123Y-65263288D01*
X32018620Y-65073765D01*
X31978600Y-64872569D01*
X31978600Y-64667431D01*
X32018620Y-64466235D01*
X32097123Y-64276712D01*
X32211092Y-64106146D01*
X32356146Y-63961092D01*
X32526712Y-63847123D01*
X32716235Y-63768620D01*
X32917430Y-63728600D01*
X33122570Y-63728600D01*
X33323765Y-63768620D01*
G37*
G36*
X74961294Y-59007236D02*
G01*
X75046471Y-59013753D01*
X75086253Y-59024879D01*
X75293275Y-59082777D01*
X75521870Y-59198625D01*
X75723472Y-59356843D01*
X75890334Y-59551353D01*
X76016043Y-59774678D01*
X76087757Y-59993765D01*
X76095768Y-60018239D01*
X76123060Y-60244599D01*
X76126444Y-60272667D01*
X76106895Y-60528195D01*
X76083211Y-60612878D01*
X76037870Y-60775000D01*
X75999559Y-60850596D01*
X75951050Y-60946316D01*
X74673454Y-62951738D01*
X74673452Y-62951740D01*
X74554880Y-63102826D01*
X74360373Y-63269686D01*
X74223755Y-63346587D01*
X74137045Y-63395396D01*
X73899834Y-63473042D01*
X73893484Y-63475121D01*
X73639057Y-63505797D01*
X73639056Y-63505797D01*
X73383529Y-63486248D01*
X73136725Y-63417223D01*
X73136724Y-63417223D01*
X73136722Y-63417222D01*
X72908135Y-63301378D01*
X72908133Y-63301377D01*
X72908130Y-63301375D01*
X72732922Y-63163871D01*
X72706524Y-63143154D01*
X72539667Y-62948650D01*
X72413958Y-62725323D01*
X72413957Y-62725322D01*
X72334233Y-62481764D01*
X72334232Y-62481761D01*
X72303556Y-62227334D01*
X72311199Y-62127430D01*
X72323105Y-61971806D01*
X72392130Y-61725002D01*
X72392130Y-61725001D01*
X72472770Y-61565880D01*
X72478950Y-61553685D01*
X73756545Y-59548262D01*
X73875119Y-59397175D01*
X74019052Y-59273701D01*
X74069630Y-59230312D01*
X74292948Y-59104606D01*
X74292954Y-59104604D01*
X74536511Y-59024880D01*
X74536512Y-59024880D01*
X74536515Y-59024879D01*
X74790941Y-58994203D01*
X74790943Y-58994203D01*
X74961294Y-59007236D01*
G37*
G36*
X55911294Y-59007236D02*
G01*
X55996471Y-59013753D01*
X56036253Y-59024879D01*
X56243275Y-59082777D01*
X56471870Y-59198625D01*
X56673472Y-59356843D01*
X56840334Y-59551353D01*
X56966043Y-59774678D01*
X57037757Y-59993765D01*
X57045768Y-60018239D01*
X57073060Y-60244599D01*
X57076444Y-60272667D01*
X57056895Y-60528195D01*
X57033211Y-60612878D01*
X56987870Y-60775000D01*
X56949559Y-60850596D01*
X56901050Y-60946316D01*
X55623454Y-62951738D01*
X55623452Y-62951740D01*
X55504880Y-63102826D01*
X55310373Y-63269686D01*
X55173755Y-63346587D01*
X55087045Y-63395396D01*
X54849834Y-63473042D01*
X54843484Y-63475121D01*
X54589057Y-63505797D01*
X54589056Y-63505797D01*
X54333529Y-63486248D01*
X54086725Y-63417223D01*
X54086724Y-63417223D01*
X54086722Y-63417222D01*
X53858135Y-63301378D01*
X53858133Y-63301377D01*
X53858130Y-63301375D01*
X53682922Y-63163871D01*
X53656524Y-63143154D01*
X53489667Y-62948650D01*
X53363958Y-62725323D01*
X53363957Y-62725322D01*
X53284233Y-62481764D01*
X53284232Y-62481761D01*
X53253556Y-62227334D01*
X53261199Y-62127430D01*
X53273105Y-61971806D01*
X53342130Y-61725002D01*
X53342130Y-61725001D01*
X53422770Y-61565880D01*
X53428950Y-61553685D01*
X54706545Y-59548262D01*
X54825119Y-59397175D01*
X54969052Y-59273701D01*
X55019630Y-59230312D01*
X55242948Y-59104606D01*
X55242954Y-59104604D01*
X55486511Y-59024880D01*
X55486512Y-59024880D01*
X55486515Y-59024879D01*
X55740941Y-58994203D01*
X55740943Y-58994203D01*
X55911294Y-59007236D01*
G37*
G36*
X33323765Y-61228620D02*
G01*
X33513288Y-61307123D01*
X33683854Y-61421092D01*
X33828908Y-61566146D01*
X33942877Y-61736712D01*
X34021380Y-61926235D01*
X34061400Y-62127431D01*
X34061400Y-62332569D01*
X34021380Y-62533765D01*
X33942877Y-62723288D01*
X33828908Y-62893854D01*
X33683854Y-63038908D01*
X33513288Y-63152877D01*
X33513287Y-63152878D01*
X33513286Y-63152878D01*
X33323765Y-63231380D01*
X33122570Y-63271400D01*
X32917430Y-63271400D01*
X32716235Y-63231380D01*
X32526714Y-63152878D01*
X32526713Y-63152878D01*
X32526712Y-63152877D01*
X32356146Y-63038908D01*
X32211092Y-62893854D01*
X32097123Y-62723288D01*
X32018620Y-62533765D01*
X31978600Y-62332569D01*
X31978600Y-62127431D01*
X32018620Y-61926235D01*
X32097123Y-61736712D01*
X32211092Y-61566146D01*
X32356146Y-61421092D01*
X32526712Y-61307123D01*
X32716235Y-61228620D01*
X32917430Y-61188600D01*
X33122570Y-61188600D01*
X33323765Y-61228620D01*
G37*
G36*
X18083765Y-61228620D02*
G01*
X18273288Y-61307123D01*
X18443854Y-61421092D01*
X18588908Y-61566146D01*
X18702877Y-61736712D01*
X18781380Y-61926235D01*
X18821400Y-62127431D01*
X18821400Y-62332569D01*
X18781380Y-62533765D01*
X18702877Y-62723288D01*
X18588908Y-62893854D01*
X18443854Y-63038908D01*
X18273288Y-63152877D01*
X18273287Y-63152878D01*
X18273286Y-63152878D01*
X18083765Y-63231380D01*
X17882570Y-63271400D01*
X17677430Y-63271400D01*
X17476235Y-63231380D01*
X17286714Y-63152878D01*
X17286713Y-63152878D01*
X17286712Y-63152877D01*
X17116146Y-63038908D01*
X16971092Y-62893854D01*
X16857123Y-62723288D01*
X16778620Y-62533765D01*
X16738600Y-62332569D01*
X16738600Y-62127431D01*
X16778620Y-61926235D01*
X16857123Y-61736712D01*
X16971092Y-61566146D01*
X17116146Y-61421092D01*
X17286712Y-61307123D01*
X17476235Y-61228620D01*
X17677430Y-61188600D01*
X17882570Y-61188600D01*
X18083765Y-61228620D01*
G37*
G36*
X61301379Y-58428813D02*
G01*
X61540991Y-58519713D01*
X61747053Y-58648600D01*
X61758265Y-58655613D01*
X61944852Y-58831288D01*
X62056209Y-58987550D01*
X62093580Y-59039990D01*
X62198735Y-59273697D01*
X62198736Y-59273701D01*
X62256276Y-59523428D01*
X62262058Y-59715394D01*
X62245455Y-59958928D01*
X62213916Y-60421571D01*
X62182135Y-60610983D01*
X62091235Y-60850595D01*
X61955335Y-61067869D01*
X61779660Y-61254456D01*
X61623398Y-61365813D01*
X61570958Y-61403184D01*
X61337251Y-61508339D01*
X61337247Y-61508340D01*
X61087521Y-61565880D01*
X60831366Y-61573594D01*
X60831362Y-61573594D01*
X60578621Y-61531187D01*
X60339009Y-61440287D01*
X60121735Y-61304387D01*
X60068703Y-61254456D01*
X59935148Y-61128712D01*
X59805166Y-60946315D01*
X59786420Y-60920010D01*
X59681265Y-60686303D01*
X59623724Y-60436571D01*
X59621233Y-60353854D01*
X59617942Y-60244608D01*
X59666084Y-59538428D01*
X59689785Y-59397175D01*
X59697865Y-59349017D01*
X59788765Y-59109405D01*
X59924665Y-58892131D01*
X60100340Y-58705544D01*
X60256602Y-58594187D01*
X60309042Y-58556816D01*
X60542749Y-58451661D01*
X60542753Y-58451660D01*
X60792479Y-58394120D01*
X61048634Y-58386406D01*
X61048638Y-58386406D01*
X61301379Y-58428813D01*
G37*
G36*
X80351379Y-58428813D02*
G01*
X80590991Y-58519713D01*
X80797053Y-58648600D01*
X80808265Y-58655613D01*
X80994852Y-58831288D01*
X81106209Y-58987550D01*
X81143580Y-59039990D01*
X81248735Y-59273697D01*
X81248736Y-59273701D01*
X81306276Y-59523428D01*
X81312058Y-59715394D01*
X81295455Y-59958928D01*
X81263916Y-60421571D01*
X81232135Y-60610983D01*
X81141235Y-60850595D01*
X81005335Y-61067869D01*
X80829660Y-61254456D01*
X80673398Y-61365813D01*
X80620958Y-61403184D01*
X80387251Y-61508339D01*
X80387247Y-61508340D01*
X80137521Y-61565880D01*
X79881366Y-61573594D01*
X79881362Y-61573594D01*
X79628621Y-61531187D01*
X79389009Y-61440287D01*
X79171735Y-61304387D01*
X79118703Y-61254456D01*
X78985148Y-61128712D01*
X78855166Y-60946315D01*
X78836420Y-60920010D01*
X78731265Y-60686303D01*
X78673724Y-60436571D01*
X78671233Y-60353854D01*
X78667942Y-60244608D01*
X78716084Y-59538428D01*
X78739785Y-59397175D01*
X78747865Y-59349017D01*
X78838765Y-59109405D01*
X78974665Y-58892131D01*
X79150340Y-58705544D01*
X79306602Y-58594187D01*
X79359042Y-58556816D01*
X79592749Y-58451661D01*
X79592753Y-58451660D01*
X79842479Y-58394120D01*
X80098634Y-58386406D01*
X80098638Y-58386406D01*
X80351379Y-58428813D01*
G37*
G36*
X18083765Y-58688620D02*
G01*
X18273288Y-58767123D01*
X18443854Y-58881092D01*
X18588908Y-59026146D01*
X18626748Y-59082778D01*
X18702878Y-59196714D01*
X18781380Y-59386235D01*
X18813609Y-59548260D01*
X18821400Y-59587431D01*
X18821400Y-59792569D01*
X18781380Y-59993765D01*
X18702877Y-60183288D01*
X18588908Y-60353854D01*
X18443854Y-60498908D01*
X18273288Y-60612877D01*
X18273287Y-60612878D01*
X18273286Y-60612878D01*
X18083765Y-60691380D01*
X17882570Y-60731400D01*
X17677430Y-60731400D01*
X17476235Y-60691380D01*
X17286714Y-60612878D01*
X17286713Y-60612878D01*
X17286712Y-60612877D01*
X17116146Y-60498908D01*
X16971092Y-60353854D01*
X16857123Y-60183288D01*
X16778620Y-59993765D01*
X16738600Y-59792569D01*
X16738600Y-59587431D01*
X16746392Y-59548260D01*
X16778620Y-59386235D01*
X16857122Y-59196714D01*
X16933252Y-59082778D01*
X16971092Y-59026146D01*
X17116146Y-58881092D01*
X17286712Y-58767123D01*
X17476235Y-58688620D01*
X17677430Y-58648600D01*
X17882570Y-58648600D01*
X18083765Y-58688620D01*
G37*
G36*
X33323765Y-58688620D02*
G01*
X33513288Y-58767123D01*
X33683854Y-58881092D01*
X33828908Y-59026146D01*
X33866748Y-59082778D01*
X33942878Y-59196714D01*
X34021380Y-59386235D01*
X34053609Y-59548260D01*
X34061400Y-59587431D01*
X34061400Y-59792569D01*
X34021380Y-59993765D01*
X33942877Y-60183288D01*
X33828908Y-60353854D01*
X33683854Y-60498908D01*
X33513288Y-60612877D01*
X33513287Y-60612878D01*
X33513286Y-60612878D01*
X33323765Y-60691380D01*
X33122570Y-60731400D01*
X32917430Y-60731400D01*
X32716235Y-60691380D01*
X32526714Y-60612878D01*
X32526713Y-60612878D01*
X32526712Y-60612877D01*
X32356146Y-60498908D01*
X32211092Y-60353854D01*
X32097123Y-60183288D01*
X32018620Y-59993765D01*
X31978600Y-59792569D01*
X31978600Y-59587431D01*
X31986392Y-59548260D01*
X32018620Y-59386235D01*
X32097122Y-59196714D01*
X32173252Y-59082778D01*
X32211092Y-59026146D01*
X32356146Y-58881092D01*
X32526712Y-58767123D01*
X32716235Y-58688620D01*
X32917430Y-58648600D01*
X33122570Y-58648600D01*
X33323765Y-58688620D01*
G37*
G36*
X33323765Y-56148620D02*
G01*
X33513288Y-56227123D01*
X33683854Y-56341092D01*
X33828908Y-56486146D01*
X33942877Y-56656712D01*
X34021380Y-56846235D01*
X34061400Y-57047431D01*
X34061400Y-57252569D01*
X34021380Y-57453765D01*
X33942877Y-57643288D01*
X33828908Y-57813854D01*
X33683854Y-57958908D01*
X33513288Y-58072877D01*
X33513287Y-58072878D01*
X33513286Y-58072878D01*
X33323765Y-58151380D01*
X33122570Y-58191400D01*
X32917430Y-58191400D01*
X32716235Y-58151380D01*
X32526714Y-58072878D01*
X32526713Y-58072878D01*
X32526712Y-58072877D01*
X32356146Y-57958908D01*
X32211092Y-57813854D01*
X32097123Y-57643288D01*
X32018620Y-57453765D01*
X31978600Y-57252569D01*
X31978600Y-57047431D01*
X32018620Y-56846235D01*
X32097123Y-56656712D01*
X32211092Y-56486146D01*
X32356146Y-56341092D01*
X32526712Y-56227123D01*
X32716235Y-56148620D01*
X32917430Y-56108600D01*
X33122570Y-56108600D01*
X33323765Y-56148620D01*
G37*
G36*
X18083765Y-56148620D02*
G01*
X18273288Y-56227123D01*
X18443854Y-56341092D01*
X18588908Y-56486146D01*
X18702877Y-56656712D01*
X18781380Y-56846235D01*
X18821400Y-57047431D01*
X18821400Y-57252569D01*
X18781380Y-57453765D01*
X18702877Y-57643288D01*
X18588908Y-57813854D01*
X18443854Y-57958908D01*
X18273288Y-58072877D01*
X18273287Y-58072878D01*
X18273286Y-58072878D01*
X18083765Y-58151380D01*
X17882570Y-58191400D01*
X17677430Y-58191400D01*
X17476235Y-58151380D01*
X17286714Y-58072878D01*
X17286713Y-58072878D01*
X17286712Y-58072877D01*
X17116146Y-57958908D01*
X16971092Y-57813854D01*
X16857123Y-57643288D01*
X16778620Y-57453765D01*
X16738600Y-57252569D01*
X16738600Y-57047431D01*
X16778620Y-56846235D01*
X16857123Y-56656712D01*
X16971092Y-56486146D01*
X17116146Y-56341092D01*
X17286712Y-56227123D01*
X17476235Y-56148620D01*
X17677430Y-56108600D01*
X17882570Y-56108600D01*
X18083765Y-56148620D01*
G37*
G36*
X33323765Y-53608620D02*
G01*
X33513288Y-53687123D01*
X33683854Y-53801092D01*
X33828908Y-53946146D01*
X33942877Y-54116712D01*
X33942878Y-54116714D01*
X34021380Y-54306235D01*
X34061400Y-54507430D01*
X34061400Y-54712570D01*
X34021380Y-54913765D01*
X33960615Y-55060466D01*
X33942877Y-55103288D01*
X33828908Y-55273854D01*
X33683854Y-55418908D01*
X33513288Y-55532877D01*
X33513287Y-55532878D01*
X33513286Y-55532878D01*
X33323765Y-55611380D01*
X33122570Y-55651400D01*
X32917430Y-55651400D01*
X32716235Y-55611380D01*
X32526714Y-55532878D01*
X32526713Y-55532878D01*
X32526712Y-55532877D01*
X32356146Y-55418908D01*
X32211092Y-55273854D01*
X32097123Y-55103288D01*
X32079386Y-55060466D01*
X32018620Y-54913765D01*
X31978600Y-54712570D01*
X31978600Y-54507430D01*
X32018620Y-54306235D01*
X32097122Y-54116714D01*
X32097123Y-54116712D01*
X32211092Y-53946146D01*
X32356146Y-53801092D01*
X32526712Y-53687123D01*
X32716235Y-53608620D01*
X32917430Y-53568600D01*
X33122570Y-53568600D01*
X33323765Y-53608620D01*
G37*
G36*
X18083765Y-53608620D02*
G01*
X18273288Y-53687123D01*
X18443854Y-53801092D01*
X18588908Y-53946146D01*
X18702877Y-54116712D01*
X18702878Y-54116714D01*
X18781380Y-54306235D01*
X18821400Y-54507430D01*
X18821400Y-54712570D01*
X18781380Y-54913765D01*
X18720615Y-55060466D01*
X18702877Y-55103288D01*
X18588908Y-55273854D01*
X18443854Y-55418908D01*
X18273288Y-55532877D01*
X18273287Y-55532878D01*
X18273286Y-55532878D01*
X18083765Y-55611380D01*
X17882570Y-55651400D01*
X17677430Y-55651400D01*
X17476235Y-55611380D01*
X17286714Y-55532878D01*
X17286713Y-55532878D01*
X17286712Y-55532877D01*
X17116146Y-55418908D01*
X16971092Y-55273854D01*
X16857123Y-55103288D01*
X16839386Y-55060466D01*
X16778620Y-54913765D01*
X16738600Y-54712570D01*
X16738600Y-54507430D01*
X16778620Y-54306235D01*
X16857122Y-54116714D01*
X16857123Y-54116712D01*
X16971092Y-53946146D01*
X17116146Y-53801092D01*
X17286712Y-53687123D01*
X17476235Y-53608620D01*
X17677430Y-53568600D01*
X17882570Y-53568600D01*
X18083765Y-53608620D01*
G37*
G36*
X62507395Y-53695546D02*
G01*
X62680466Y-53767234D01*
X62731138Y-53801092D01*
X62836227Y-53871310D01*
X62968690Y-54003773D01*
X62968691Y-54003775D01*
X63072766Y-54159534D01*
X63144454Y-54332605D01*
X63181000Y-54516333D01*
X63181000Y-54703667D01*
X63144454Y-54887395D01*
X63072766Y-55060466D01*
X63044153Y-55103288D01*
X62968690Y-55216227D01*
X62836227Y-55348690D01*
X62757818Y-55401081D01*
X62680466Y-55452766D01*
X62507395Y-55524454D01*
X62323667Y-55561000D01*
X62136333Y-55561000D01*
X61952605Y-55524454D01*
X61779534Y-55452766D01*
X61702182Y-55401081D01*
X61623773Y-55348690D01*
X61491310Y-55216227D01*
X61415847Y-55103288D01*
X61387234Y-55060466D01*
X61315546Y-54887395D01*
X61279000Y-54703667D01*
X61279000Y-54516333D01*
X61315546Y-54332605D01*
X61387234Y-54159534D01*
X61491309Y-54003775D01*
X61491310Y-54003773D01*
X61623773Y-53871310D01*
X61728862Y-53801092D01*
X61779534Y-53767234D01*
X61952605Y-53695546D01*
X62136333Y-53659000D01*
X62323667Y-53659000D01*
X62507395Y-53695546D01*
G37*
G36*
X55561000Y-55561000D02*
G01*
X53659000Y-55561000D01*
X53659000Y-53659000D01*
X55561000Y-53659000D01*
X55561000Y-55561000D01*
G37*
G36*
X73341000Y-55561000D02*
G01*
X71439000Y-55561000D01*
X71439000Y-53659000D01*
X73341000Y-53659000D01*
X73341000Y-55561000D01*
G37*
G36*
X80287395Y-53695546D02*
G01*
X80460466Y-53767234D01*
X80511138Y-53801092D01*
X80616227Y-53871310D01*
X80748690Y-54003773D01*
X80748691Y-54003775D01*
X80852766Y-54159534D01*
X80924454Y-54332605D01*
X80961000Y-54516333D01*
X80961000Y-54703667D01*
X80924454Y-54887395D01*
X80852766Y-55060466D01*
X80824153Y-55103288D01*
X80748690Y-55216227D01*
X80616227Y-55348690D01*
X80537818Y-55401081D01*
X80460466Y-55452766D01*
X80287395Y-55524454D01*
X80103667Y-55561000D01*
X79916333Y-55561000D01*
X79732605Y-55524454D01*
X79559534Y-55452766D01*
X79482182Y-55401081D01*
X79403773Y-55348690D01*
X79271310Y-55216227D01*
X79195847Y-55103288D01*
X79167234Y-55060466D01*
X79095546Y-54887395D01*
X79059000Y-54703667D01*
X79059000Y-54516333D01*
X79095546Y-54332605D01*
X79167234Y-54159534D01*
X79271309Y-54003775D01*
X79271310Y-54003773D01*
X79403773Y-53871310D01*
X79508862Y-53801092D01*
X79559534Y-53767234D01*
X79732605Y-53695546D01*
X79916333Y-53659000D01*
X80103667Y-53659000D01*
X80287395Y-53695546D01*
G37*
G36*
X18083765Y-51068620D02*
G01*
X18273288Y-51147123D01*
X18443854Y-51261092D01*
X18588908Y-51406146D01*
X18702877Y-51576712D01*
X18781380Y-51766235D01*
X18821400Y-51967431D01*
X18821400Y-52172569D01*
X18781380Y-52373765D01*
X18702877Y-52563288D01*
X18588908Y-52733854D01*
X18443854Y-52878908D01*
X18273288Y-52992877D01*
X18273287Y-52992878D01*
X18273286Y-52992878D01*
X18083765Y-53071380D01*
X17882570Y-53111400D01*
X17677430Y-53111400D01*
X17476235Y-53071380D01*
X17286714Y-52992878D01*
X17286713Y-52992878D01*
X17286712Y-52992877D01*
X17116146Y-52878908D01*
X16971092Y-52733854D01*
X16857123Y-52563288D01*
X16778620Y-52373765D01*
X16738600Y-52172569D01*
X16738600Y-51967431D01*
X16778620Y-51766235D01*
X16857123Y-51576712D01*
X16971092Y-51406146D01*
X17116146Y-51261092D01*
X17286712Y-51147123D01*
X17476235Y-51068620D01*
X17677430Y-51028600D01*
X17882570Y-51028600D01*
X18083765Y-51068620D01*
G37*
G36*
X33323765Y-51068620D02*
G01*
X33513288Y-51147123D01*
X33683854Y-51261092D01*
X33828908Y-51406146D01*
X33942877Y-51576712D01*
X34021380Y-51766235D01*
X34061400Y-51967431D01*
X34061400Y-52172569D01*
X34021380Y-52373765D01*
X33942877Y-52563288D01*
X33828908Y-52733854D01*
X33683854Y-52878908D01*
X33513288Y-52992877D01*
X33513287Y-52992878D01*
X33513286Y-52992878D01*
X33323765Y-53071380D01*
X33122570Y-53111400D01*
X32917430Y-53111400D01*
X32716235Y-53071380D01*
X32526714Y-52992878D01*
X32526713Y-52992878D01*
X32526712Y-52992877D01*
X32356146Y-52878908D01*
X32211092Y-52733854D01*
X32097123Y-52563288D01*
X32018620Y-52373765D01*
X31978600Y-52172569D01*
X31978600Y-51967431D01*
X32018620Y-51766235D01*
X32097123Y-51576712D01*
X32211092Y-51406146D01*
X32356146Y-51261092D01*
X32526712Y-51147123D01*
X32716235Y-51068620D01*
X32917430Y-51028600D01*
X33122570Y-51028600D01*
X33323765Y-51068620D01*
G37*
G36*
X18083765Y-48528620D02*
G01*
X18273288Y-48607123D01*
X18443854Y-48721092D01*
X18588908Y-48866146D01*
X18702877Y-49036712D01*
X18781380Y-49226235D01*
X18821400Y-49427431D01*
X18821400Y-49632569D01*
X18781380Y-49833765D01*
X18702877Y-50023288D01*
X18588908Y-50193854D01*
X18443854Y-50338908D01*
X18273288Y-50452877D01*
X18273287Y-50452878D01*
X18273286Y-50452878D01*
X18083765Y-50531380D01*
X17882570Y-50571400D01*
X17677430Y-50571400D01*
X17476235Y-50531380D01*
X17286714Y-50452878D01*
X17286713Y-50452878D01*
X17286712Y-50452877D01*
X17116146Y-50338908D01*
X16971092Y-50193854D01*
X16857123Y-50023288D01*
X16778620Y-49833765D01*
X16738600Y-49632569D01*
X16738600Y-49427431D01*
X16778620Y-49226235D01*
X16857123Y-49036712D01*
X16971092Y-48866146D01*
X17116146Y-48721092D01*
X17286712Y-48607123D01*
X17476235Y-48528620D01*
X17677430Y-48488600D01*
X17882570Y-48488600D01*
X18083765Y-48528620D01*
G37*
G36*
X33323765Y-48528620D02*
G01*
X33513288Y-48607123D01*
X33683854Y-48721092D01*
X33828908Y-48866146D01*
X33942877Y-49036712D01*
X34021380Y-49226235D01*
X34061400Y-49427431D01*
X34061400Y-49632569D01*
X34021380Y-49833765D01*
X33942877Y-50023288D01*
X33828908Y-50193854D01*
X33683854Y-50338908D01*
X33513288Y-50452877D01*
X33513287Y-50452878D01*
X33513286Y-50452878D01*
X33323765Y-50531380D01*
X33122570Y-50571400D01*
X32917430Y-50571400D01*
X32716235Y-50531380D01*
X32526714Y-50452878D01*
X32526713Y-50452878D01*
X32526712Y-50452877D01*
X32356146Y-50338908D01*
X32211092Y-50193854D01*
X32097123Y-50023288D01*
X32018620Y-49833765D01*
X31978600Y-49632569D01*
X31978600Y-49427431D01*
X32018620Y-49226235D01*
X32097123Y-49036712D01*
X32211092Y-48866146D01*
X32356146Y-48721092D01*
X32526712Y-48607123D01*
X32716235Y-48528620D01*
X32917430Y-48488600D01*
X33122570Y-48488600D01*
X33323765Y-48528620D01*
G37*
G36*
X18083765Y-45988620D02*
G01*
X18273288Y-46067123D01*
X18443854Y-46181092D01*
X18588908Y-46326146D01*
X18702877Y-46496712D01*
X18781380Y-46686235D01*
X18821400Y-46887431D01*
X18821400Y-47092569D01*
X18781380Y-47293765D01*
X18702877Y-47483288D01*
X18588908Y-47653854D01*
X18443854Y-47798908D01*
X18273288Y-47912877D01*
X18273287Y-47912878D01*
X18273286Y-47912878D01*
X18083765Y-47991380D01*
X17882570Y-48031400D01*
X17677430Y-48031400D01*
X17476235Y-47991380D01*
X17286714Y-47912878D01*
X17286713Y-47912878D01*
X17286712Y-47912877D01*
X17116146Y-47798908D01*
X16971092Y-47653854D01*
X16857123Y-47483288D01*
X16778620Y-47293765D01*
X16738600Y-47092569D01*
X16738600Y-46887431D01*
X16778620Y-46686235D01*
X16857123Y-46496712D01*
X16971092Y-46326146D01*
X17116146Y-46181092D01*
X17286712Y-46067123D01*
X17476235Y-45988620D01*
X17677430Y-45948600D01*
X17882570Y-45948600D01*
X18083765Y-45988620D01*
G37*
G36*
X33323765Y-45988620D02*
G01*
X33513288Y-46067123D01*
X33683854Y-46181092D01*
X33828908Y-46326146D01*
X33942877Y-46496712D01*
X34021380Y-46686235D01*
X34061400Y-46887431D01*
X34061400Y-47092569D01*
X34021380Y-47293765D01*
X33942877Y-47483288D01*
X33828908Y-47653854D01*
X33683854Y-47798908D01*
X33513288Y-47912877D01*
X33513287Y-47912878D01*
X33513286Y-47912878D01*
X33323765Y-47991380D01*
X33122570Y-48031400D01*
X32917430Y-48031400D01*
X32716235Y-47991380D01*
X32526714Y-47912878D01*
X32526713Y-47912878D01*
X32526712Y-47912877D01*
X32356146Y-47798908D01*
X32211092Y-47653854D01*
X32097123Y-47483288D01*
X32018620Y-47293765D01*
X31978600Y-47092569D01*
X31978600Y-46887431D01*
X32018620Y-46686235D01*
X32097123Y-46496712D01*
X32211092Y-46326146D01*
X32356146Y-46181092D01*
X32526712Y-46067123D01*
X32716235Y-45988620D01*
X32917430Y-45948600D01*
X33122570Y-45948600D01*
X33323765Y-45988620D01*
G37*
G36*
X33323765Y-43448620D02*
G01*
X33513288Y-43527123D01*
X33683854Y-43641092D01*
X33828908Y-43786146D01*
X33942877Y-43956712D01*
X34021380Y-44146235D01*
X34061400Y-44347431D01*
X34061400Y-44552569D01*
X34021380Y-44753765D01*
X33942877Y-44943288D01*
X33828908Y-45113854D01*
X33683854Y-45258908D01*
X33513288Y-45372877D01*
X33513287Y-45372878D01*
X33513286Y-45372878D01*
X33323765Y-45451380D01*
X33122570Y-45491400D01*
X32917430Y-45491400D01*
X32716235Y-45451380D01*
X32526714Y-45372878D01*
X32526713Y-45372878D01*
X32526712Y-45372877D01*
X32356146Y-45258908D01*
X32211092Y-45113854D01*
X32097123Y-44943288D01*
X32018620Y-44753765D01*
X31978600Y-44552569D01*
X31978600Y-44347431D01*
X32018620Y-44146235D01*
X32097123Y-43956712D01*
X32211092Y-43786146D01*
X32356146Y-43641092D01*
X32526712Y-43527123D01*
X32716235Y-43448620D01*
X32917430Y-43408600D01*
X33122570Y-43408600D01*
X33323765Y-43448620D01*
G37*
G36*
X18083765Y-43448620D02*
G01*
X18273288Y-43527123D01*
X18443854Y-43641092D01*
X18588908Y-43786146D01*
X18702877Y-43956712D01*
X18781380Y-44146235D01*
X18821400Y-44347431D01*
X18821400Y-44552569D01*
X18781380Y-44753765D01*
X18702877Y-44943288D01*
X18588908Y-45113854D01*
X18443854Y-45258908D01*
X18273288Y-45372877D01*
X18273287Y-45372878D01*
X18273286Y-45372878D01*
X18083765Y-45451380D01*
X17882570Y-45491400D01*
X17677430Y-45491400D01*
X17476235Y-45451380D01*
X17286714Y-45372878D01*
X17286713Y-45372878D01*
X17286712Y-45372877D01*
X17116146Y-45258908D01*
X16971092Y-45113854D01*
X16857123Y-44943288D01*
X16778620Y-44753765D01*
X16738600Y-44552569D01*
X16738600Y-44347431D01*
X16778620Y-44146235D01*
X16857123Y-43956712D01*
X16971092Y-43786146D01*
X17116146Y-43641092D01*
X17286712Y-43527123D01*
X17476235Y-43448620D01*
X17677430Y-43408600D01*
X17882570Y-43408600D01*
X18083765Y-43448620D01*
G37*
G36*
X56345495Y-39271437D02*
G01*
X56430672Y-39277954D01*
X56470454Y-39289080D01*
X56677476Y-39346978D01*
X56906071Y-39462826D01*
X57107673Y-39621044D01*
X57274535Y-39815554D01*
X57400244Y-40038879D01*
X57478559Y-40278132D01*
X57479969Y-40282440D01*
X57507261Y-40508800D01*
X57510645Y-40536868D01*
X57491096Y-40792396D01*
X57467942Y-40875184D01*
X57422071Y-41039201D01*
X57383760Y-41114797D01*
X57335251Y-41210517D01*
X56057655Y-43215939D01*
X56057653Y-43215941D01*
X55939081Y-43367027D01*
X55744574Y-43533887D01*
X55607956Y-43610788D01*
X55521246Y-43659597D01*
X55284035Y-43737243D01*
X55277685Y-43739322D01*
X55023258Y-43769998D01*
X55023257Y-43769998D01*
X54767730Y-43750449D01*
X54520926Y-43681424D01*
X54520925Y-43681424D01*
X54520923Y-43681423D01*
X54292336Y-43565579D01*
X54292334Y-43565578D01*
X54292331Y-43565576D01*
X54117123Y-43428072D01*
X54090725Y-43407355D01*
X53923868Y-43212851D01*
X53798159Y-42989524D01*
X53798158Y-42989523D01*
X53718434Y-42745965D01*
X53718433Y-42745962D01*
X53687757Y-42491535D01*
X53687757Y-42491534D01*
X53707306Y-42236007D01*
X53776331Y-41989203D01*
X53776331Y-41989202D01*
X53856971Y-41830081D01*
X53863151Y-41817886D01*
X55140746Y-39812463D01*
X55259320Y-39661376D01*
X55403253Y-39537902D01*
X55453831Y-39494513D01*
X55677149Y-39368807D01*
X55677155Y-39368805D01*
X55920712Y-39289081D01*
X55920713Y-39289081D01*
X55920716Y-39289080D01*
X56175142Y-39258404D01*
X56175144Y-39258404D01*
X56345495Y-39271437D01*
G37*
G36*
X74961294Y-39271437D02*
G01*
X75046471Y-39277954D01*
X75086253Y-39289080D01*
X75293275Y-39346978D01*
X75521870Y-39462826D01*
X75723472Y-39621044D01*
X75890334Y-39815554D01*
X76016043Y-40038879D01*
X76094358Y-40278132D01*
X76095768Y-40282440D01*
X76123060Y-40508800D01*
X76126444Y-40536868D01*
X76106895Y-40792396D01*
X76083741Y-40875184D01*
X76037870Y-41039201D01*
X75999559Y-41114797D01*
X75951050Y-41210517D01*
X74673454Y-43215939D01*
X74673452Y-43215941D01*
X74554880Y-43367027D01*
X74360373Y-43533887D01*
X74223755Y-43610788D01*
X74137045Y-43659597D01*
X73899834Y-43737243D01*
X73893484Y-43739322D01*
X73639057Y-43769998D01*
X73639056Y-43769998D01*
X73383529Y-43750449D01*
X73136725Y-43681424D01*
X73136724Y-43681424D01*
X73136722Y-43681423D01*
X72908135Y-43565579D01*
X72908133Y-43565578D01*
X72908130Y-43565576D01*
X72732922Y-43428072D01*
X72706524Y-43407355D01*
X72539667Y-43212851D01*
X72413958Y-42989524D01*
X72413957Y-42989523D01*
X72334233Y-42745965D01*
X72334232Y-42745962D01*
X72303556Y-42491535D01*
X72303556Y-42491534D01*
X72323105Y-42236007D01*
X72392130Y-41989203D01*
X72392130Y-41989202D01*
X72472770Y-41830081D01*
X72478950Y-41817886D01*
X73756545Y-39812463D01*
X73875119Y-39661376D01*
X74019052Y-39537902D01*
X74069630Y-39494513D01*
X74292948Y-39368807D01*
X74292954Y-39368805D01*
X74536511Y-39289081D01*
X74536512Y-39289081D01*
X74536515Y-39289080D01*
X74790941Y-39258404D01*
X74790943Y-39258404D01*
X74961294Y-39271437D01*
G37*
G36*
X33323765Y-40908620D02*
G01*
X33513288Y-40987123D01*
X33683854Y-41101092D01*
X33828908Y-41246146D01*
X33926974Y-41392912D01*
X33942878Y-41416714D01*
X34021380Y-41606235D01*
X34059005Y-41795387D01*
X34061400Y-41807431D01*
X34061400Y-42012569D01*
X34021380Y-42213765D01*
X33942877Y-42403288D01*
X33828908Y-42573854D01*
X33683854Y-42718908D01*
X33513288Y-42832877D01*
X33513287Y-42832878D01*
X33513286Y-42832878D01*
X33323765Y-42911380D01*
X33122570Y-42951400D01*
X32917430Y-42951400D01*
X32716235Y-42911380D01*
X32526714Y-42832878D01*
X32526713Y-42832878D01*
X32526712Y-42832877D01*
X32356146Y-42718908D01*
X32211092Y-42573854D01*
X32097123Y-42403288D01*
X32018620Y-42213765D01*
X31978600Y-42012569D01*
X31978600Y-41807431D01*
X31980996Y-41795387D01*
X32018620Y-41606235D01*
X32097122Y-41416714D01*
X32113026Y-41392912D01*
X32211092Y-41246146D01*
X32356146Y-41101092D01*
X32526712Y-40987123D01*
X32716235Y-40908620D01*
X32917430Y-40868600D01*
X33122570Y-40868600D01*
X33323765Y-40908620D01*
G37*
G36*
X18083765Y-40908620D02*
G01*
X18273288Y-40987123D01*
X18443854Y-41101092D01*
X18588908Y-41246146D01*
X18686974Y-41392912D01*
X18702878Y-41416714D01*
X18781380Y-41606235D01*
X18819005Y-41795387D01*
X18821400Y-41807431D01*
X18821400Y-42012569D01*
X18781380Y-42213765D01*
X18702877Y-42403288D01*
X18588908Y-42573854D01*
X18443854Y-42718908D01*
X18273288Y-42832877D01*
X18273287Y-42832878D01*
X18273286Y-42832878D01*
X18083765Y-42911380D01*
X17882570Y-42951400D01*
X17677430Y-42951400D01*
X17476235Y-42911380D01*
X17286714Y-42832878D01*
X17286713Y-42832878D01*
X17286712Y-42832877D01*
X17116146Y-42718908D01*
X16971092Y-42573854D01*
X16857123Y-42403288D01*
X16778620Y-42213765D01*
X16738600Y-42012569D01*
X16738600Y-41807431D01*
X16740996Y-41795387D01*
X16778620Y-41606235D01*
X16857122Y-41416714D01*
X16873026Y-41392912D01*
X16971092Y-41246146D01*
X17116146Y-41101092D01*
X17286712Y-40987123D01*
X17476235Y-40908620D01*
X17677430Y-40868600D01*
X17882570Y-40868600D01*
X18083765Y-40908620D01*
G37*
G36*
X61735580Y-38693014D02*
G01*
X61975192Y-38783914D01*
X62192466Y-38919814D01*
X62379053Y-39095489D01*
X62490410Y-39251751D01*
X62527781Y-39304191D01*
X62632936Y-39537898D01*
X62632937Y-39537902D01*
X62690477Y-39787629D01*
X62696259Y-39979595D01*
X62696258Y-39979603D01*
X62648117Y-40685772D01*
X62616336Y-40875184D01*
X62525436Y-41114796D01*
X62443278Y-41246148D01*
X62389536Y-41332070D01*
X62213861Y-41518657D01*
X62090967Y-41606235D01*
X62005159Y-41667385D01*
X61771452Y-41772540D01*
X61771448Y-41772541D01*
X61521722Y-41830081D01*
X61265567Y-41837795D01*
X61265563Y-41837795D01*
X61012822Y-41795388D01*
X60773210Y-41704488D01*
X60555936Y-41568588D01*
X60502904Y-41518657D01*
X60369349Y-41392913D01*
X60239367Y-41210516D01*
X60220621Y-41184211D01*
X60115466Y-40950504D01*
X60057925Y-40700772D01*
X60057473Y-40685772D01*
X60052143Y-40508809D01*
X60100285Y-39802629D01*
X60123986Y-39661376D01*
X60132066Y-39613218D01*
X60222966Y-39373606D01*
X60358866Y-39156332D01*
X60416151Y-39095489D01*
X60534541Y-38969745D01*
X60690803Y-38858388D01*
X60743243Y-38821017D01*
X60976950Y-38715862D01*
X60976954Y-38715861D01*
X61226680Y-38658321D01*
X61482835Y-38650607D01*
X61482839Y-38650607D01*
X61735580Y-38693014D01*
G37*
G36*
X80351379Y-38693014D02*
G01*
X80590991Y-38783914D01*
X80808265Y-38919814D01*
X80994852Y-39095489D01*
X81106209Y-39251751D01*
X81143580Y-39304191D01*
X81248735Y-39537898D01*
X81248736Y-39537902D01*
X81306276Y-39787629D01*
X81312058Y-39979595D01*
X81312057Y-39979603D01*
X81263916Y-40685772D01*
X81232135Y-40875184D01*
X81141235Y-41114796D01*
X81059077Y-41246148D01*
X81005335Y-41332070D01*
X80829660Y-41518657D01*
X80706766Y-41606235D01*
X80620958Y-41667385D01*
X80387251Y-41772540D01*
X80387247Y-41772541D01*
X80137521Y-41830081D01*
X79881366Y-41837795D01*
X79881362Y-41837795D01*
X79628621Y-41795388D01*
X79389009Y-41704488D01*
X79171735Y-41568588D01*
X79118703Y-41518657D01*
X78985148Y-41392913D01*
X78855166Y-41210516D01*
X78836420Y-41184211D01*
X78731265Y-40950504D01*
X78673724Y-40700772D01*
X78673272Y-40685772D01*
X78667942Y-40508809D01*
X78716084Y-39802629D01*
X78739785Y-39661376D01*
X78747865Y-39613218D01*
X78838765Y-39373606D01*
X78974665Y-39156332D01*
X79031950Y-39095489D01*
X79150340Y-38969745D01*
X79306602Y-38858388D01*
X79359042Y-38821017D01*
X79592749Y-38715862D01*
X79592753Y-38715861D01*
X79842479Y-38658321D01*
X80098634Y-38650607D01*
X80098638Y-38650607D01*
X80351379Y-38693014D01*
G37*
G36*
X61237395Y-33375546D02*
G01*
X61410466Y-33447234D01*
X61410467Y-33447235D01*
X61566227Y-33551310D01*
X61698690Y-33683773D01*
X61698691Y-33683775D01*
X61802766Y-33839534D01*
X61874454Y-34012605D01*
X61911000Y-34196333D01*
X61911000Y-34383667D01*
X61874454Y-34567395D01*
X61802766Y-34740466D01*
X61802765Y-34740467D01*
X61698690Y-34896227D01*
X61566227Y-35028690D01*
X61487818Y-35081081D01*
X61410466Y-35132766D01*
X61237395Y-35204454D01*
X61053667Y-35241000D01*
X60866333Y-35241000D01*
X60682605Y-35204454D01*
X60509534Y-35132766D01*
X60432182Y-35081081D01*
X60353773Y-35028690D01*
X60221310Y-34896227D01*
X60117235Y-34740467D01*
X60117234Y-34740466D01*
X60045546Y-34567395D01*
X60009000Y-34383667D01*
X60009000Y-34196333D01*
X60045546Y-34012605D01*
X60117234Y-33839534D01*
X60221309Y-33683775D01*
X60221310Y-33683773D01*
X60353773Y-33551310D01*
X60509533Y-33447235D01*
X60509534Y-33447234D01*
X60682605Y-33375546D01*
X60866333Y-33339000D01*
X61053667Y-33339000D01*
X61237395Y-33375546D01*
G37*
G36*
X73341000Y-35241000D02*
G01*
X71439000Y-35241000D01*
X71439000Y-33339000D01*
X73341000Y-33339000D01*
X73341000Y-35241000D01*
G37*
G36*
X80287395Y-33375546D02*
G01*
X80460466Y-33447234D01*
X80460467Y-33447235D01*
X80616227Y-33551310D01*
X80748690Y-33683773D01*
X80748691Y-33683775D01*
X80852766Y-33839534D01*
X80924454Y-34012605D01*
X80961000Y-34196333D01*
X80961000Y-34383667D01*
X80924454Y-34567395D01*
X80852766Y-34740466D01*
X80852765Y-34740467D01*
X80748690Y-34896227D01*
X80616227Y-35028690D01*
X80537818Y-35081081D01*
X80460466Y-35132766D01*
X80287395Y-35204454D01*
X80103667Y-35241000D01*
X79916333Y-35241000D01*
X79732605Y-35204454D01*
X79559534Y-35132766D01*
X79482182Y-35081081D01*
X79403773Y-35028690D01*
X79271310Y-34896227D01*
X79167235Y-34740467D01*
X79167234Y-34740466D01*
X79095546Y-34567395D01*
X79059000Y-34383667D01*
X79059000Y-34196333D01*
X79095546Y-34012605D01*
X79167234Y-33839534D01*
X79271309Y-33683775D01*
X79271310Y-33683773D01*
X79403773Y-33551310D01*
X79559533Y-33447235D01*
X79559534Y-33447234D01*
X79732605Y-33375546D01*
X79916333Y-33339000D01*
X80103667Y-33339000D01*
X80287395Y-33375546D01*
G37*
G36*
X54291000Y-35241000D02*
G01*
X52389000Y-35241000D01*
X52389000Y-33339000D01*
X54291000Y-33339000D01*
X54291000Y-35241000D01*
G37*
G36*
X55911294Y-18367236D02*
G01*
X55996471Y-18373753D01*
X56036253Y-18384879D01*
X56243275Y-18442777D01*
X56471870Y-18558625D01*
X56673472Y-18716843D01*
X56840334Y-18911353D01*
X56966043Y-19134678D01*
X57044358Y-19373931D01*
X57045768Y-19378239D01*
X57073060Y-19604599D01*
X57076444Y-19632667D01*
X57056895Y-19888195D01*
X57033741Y-19970983D01*
X56987870Y-20135000D01*
X56949559Y-20210596D01*
X56901050Y-20306316D01*
X55623454Y-22311738D01*
X55623452Y-22311740D01*
X55504880Y-22462826D01*
X55310373Y-22629686D01*
X55173755Y-22706587D01*
X55087045Y-22755396D01*
X54849834Y-22833042D01*
X54843484Y-22835121D01*
X54589057Y-22865797D01*
X54589056Y-22865797D01*
X54333529Y-22846248D01*
X54086725Y-22777223D01*
X54086724Y-22777223D01*
X54086722Y-22777222D01*
X53858135Y-22661378D01*
X53858133Y-22661377D01*
X53858130Y-22661375D01*
X53656528Y-22503157D01*
X53656524Y-22503154D01*
X53489667Y-22308650D01*
X53363958Y-22085323D01*
X53363957Y-22085322D01*
X53284233Y-21841764D01*
X53284232Y-21841761D01*
X53253556Y-21587334D01*
X53253556Y-21587333D01*
X53273105Y-21331806D01*
X53342130Y-21085002D01*
X53342130Y-21085001D01*
X53422770Y-20925880D01*
X53428950Y-20913685D01*
X54706545Y-18908262D01*
X54825119Y-18757175D01*
X54969052Y-18633701D01*
X55019630Y-18590312D01*
X55242948Y-18464606D01*
X55242954Y-18464604D01*
X55486511Y-18384880D01*
X55486512Y-18384880D01*
X55486515Y-18384879D01*
X55740941Y-18354203D01*
X55740943Y-18354203D01*
X55911294Y-18367236D01*
G37*
G36*
X74961294Y-18367236D02*
G01*
X75046471Y-18373753D01*
X75086253Y-18384879D01*
X75293275Y-18442777D01*
X75521870Y-18558625D01*
X75723472Y-18716843D01*
X75890334Y-18911353D01*
X76016043Y-19134678D01*
X76094358Y-19373931D01*
X76095768Y-19378239D01*
X76123060Y-19604599D01*
X76126444Y-19632667D01*
X76106895Y-19888195D01*
X76083741Y-19970983D01*
X76037870Y-20135000D01*
X75999559Y-20210596D01*
X75951050Y-20306316D01*
X74673454Y-22311738D01*
X74673452Y-22311740D01*
X74554880Y-22462826D01*
X74360373Y-22629686D01*
X74223755Y-22706587D01*
X74137045Y-22755396D01*
X73899834Y-22833042D01*
X73893484Y-22835121D01*
X73639057Y-22865797D01*
X73639056Y-22865797D01*
X73383529Y-22846248D01*
X73136725Y-22777223D01*
X73136724Y-22777223D01*
X73136722Y-22777222D01*
X72908135Y-22661378D01*
X72908133Y-22661377D01*
X72908130Y-22661375D01*
X72706528Y-22503157D01*
X72706524Y-22503154D01*
X72539667Y-22308650D01*
X72413958Y-22085323D01*
X72413957Y-22085322D01*
X72334233Y-21841764D01*
X72334232Y-21841761D01*
X72303556Y-21587334D01*
X72303556Y-21587333D01*
X72323105Y-21331806D01*
X72392130Y-21085002D01*
X72392130Y-21085001D01*
X72472770Y-20925880D01*
X72478950Y-20913685D01*
X73756545Y-18908262D01*
X73875119Y-18757175D01*
X74019052Y-18633701D01*
X74069630Y-18590312D01*
X74292948Y-18464606D01*
X74292954Y-18464604D01*
X74536511Y-18384880D01*
X74536512Y-18384880D01*
X74536515Y-18384879D01*
X74790941Y-18354203D01*
X74790943Y-18354203D01*
X74961294Y-18367236D01*
G37*
G36*
X61301379Y-17788813D02*
G01*
X61540991Y-17879713D01*
X61758265Y-18015613D01*
X61944852Y-18191288D01*
X62056209Y-18347550D01*
X62093580Y-18399990D01*
X62198735Y-18633697D01*
X62198736Y-18633701D01*
X62256276Y-18883428D01*
X62262058Y-19075394D01*
X62262057Y-19075402D01*
X62213916Y-19781571D01*
X62182135Y-19970983D01*
X62091235Y-20210595D01*
X61955335Y-20427869D01*
X61779660Y-20614456D01*
X61623398Y-20725813D01*
X61570958Y-20763184D01*
X61337251Y-20868339D01*
X61337247Y-20868340D01*
X61087521Y-20925880D01*
X60831366Y-20933594D01*
X60831362Y-20933594D01*
X60578621Y-20891187D01*
X60339009Y-20800287D01*
X60121735Y-20664387D01*
X60068703Y-20614456D01*
X59935148Y-20488712D01*
X59805166Y-20306315D01*
X59786420Y-20280010D01*
X59681265Y-20046303D01*
X59623724Y-19796571D01*
X59623272Y-19781571D01*
X59617942Y-19604608D01*
X59666084Y-18898428D01*
X59689785Y-18757175D01*
X59697865Y-18709017D01*
X59788765Y-18469405D01*
X59924665Y-18252131D01*
X59981950Y-18191288D01*
X60100340Y-18065544D01*
X60256602Y-17954187D01*
X60309042Y-17916816D01*
X60542749Y-17811661D01*
X60542753Y-17811660D01*
X60792479Y-17754120D01*
X61048634Y-17746406D01*
X61048638Y-17746406D01*
X61301379Y-17788813D01*
G37*
G36*
X80351379Y-17788813D02*
G01*
X80590991Y-17879713D01*
X80808265Y-18015613D01*
X80994852Y-18191288D01*
X81106209Y-18347550D01*
X81143580Y-18399990D01*
X81248735Y-18633697D01*
X81248736Y-18633701D01*
X81306276Y-18883428D01*
X81312058Y-19075394D01*
X81312057Y-19075402D01*
X81263916Y-19781571D01*
X81232135Y-19970983D01*
X81141235Y-20210595D01*
X81005335Y-20427869D01*
X80829660Y-20614456D01*
X80673398Y-20725813D01*
X80620958Y-20763184D01*
X80387251Y-20868339D01*
X80387247Y-20868340D01*
X80137521Y-20925880D01*
X79881366Y-20933594D01*
X79881362Y-20933594D01*
X79628621Y-20891187D01*
X79389009Y-20800287D01*
X79171735Y-20664387D01*
X79118703Y-20614456D01*
X78985148Y-20488712D01*
X78855166Y-20306315D01*
X78836420Y-20280010D01*
X78731265Y-20046303D01*
X78673724Y-19796571D01*
X78673272Y-19781571D01*
X78667942Y-19604608D01*
X78716084Y-18898428D01*
X78739785Y-18757175D01*
X78747865Y-18709017D01*
X78838765Y-18469405D01*
X78974665Y-18252131D01*
X79031950Y-18191288D01*
X79150340Y-18065544D01*
X79306602Y-17954187D01*
X79359042Y-17916816D01*
X79592749Y-17811661D01*
X79592753Y-17811660D01*
X79842479Y-17754120D01*
X80098634Y-17746406D01*
X80098638Y-17746406D01*
X80351379Y-17788813D01*
G37*
M02*
