G04 #@! TF.GenerationSoftware,KiCad,Pcbnew,5.1.5-5.1.5*
G04 #@! TF.CreationDate,2020-03-08T16:14:12+01:00*
G04 #@! TF.ProjectId,pcb,7063622e-6b69-4636-9164-5f7063625858,rev?*
G04 #@! TF.SameCoordinates,Original*
G04 #@! TF.FileFunction,Copper,L2,Bot*
G04 #@! TF.FilePolarity,Positive*
%FSLAX46Y46*%
G04 Gerber Fmt 4.6, Leading zero omitted, Abs format (unit mm)*
G04 Created by KiCad (PCBNEW 5.1.5-5.1.5) date 2020-03-08 16:14:12*
%MOMM*%
%LPD*%
G04 APERTURE LIST*
%ADD10C,1.879600*%
%ADD11R,1.800000X1.800000*%
%ADD12O,1.800000X1.800000*%
%ADD13C,2.500000*%
%ADD14C,0.800000*%
%ADD15C,0.250000*%
G04 APERTURE END LIST*
D10*
X17780000Y-41910000D03*
X17780000Y-44450000D03*
X17780000Y-46990000D03*
X17780000Y-49530000D03*
X17780000Y-52070000D03*
X17780000Y-54610000D03*
X17780000Y-57150000D03*
X17780000Y-59690000D03*
X17780000Y-62230000D03*
X17780000Y-64770000D03*
X17780000Y-67310000D03*
X17780000Y-69850000D03*
X33020000Y-69850000D03*
X33020000Y-67310000D03*
X33020000Y-64770000D03*
X33020000Y-62230000D03*
X33020000Y-59690000D03*
X33020000Y-57150000D03*
X33020000Y-54610000D03*
X33020000Y-52070000D03*
X33020000Y-49530000D03*
X33020000Y-46990000D03*
X33020000Y-44450000D03*
X33020000Y-41910000D03*
D11*
X54610000Y-54610000D03*
D12*
X62230000Y-54610000D03*
X60960000Y-34290000D03*
D11*
X53340000Y-34290000D03*
D12*
X60960000Y-74930000D03*
D11*
X53340000Y-74930000D03*
X53340000Y-97790000D03*
D12*
X60960000Y-97790000D03*
X80010000Y-34290000D03*
D11*
X72390000Y-34290000D03*
X72390000Y-54610000D03*
D12*
X80010000Y-54610000D03*
X80010000Y-74930000D03*
D11*
X72390000Y-74930000D03*
X72390000Y-97790000D03*
D12*
X80010000Y-97790000D03*
D13*
X56203663Y-40565386D02*
X54994739Y-42463016D01*
X61393925Y-39954873D02*
X61354477Y-40533529D01*
X55769462Y-19661185D02*
X54560538Y-21558815D01*
X60959724Y-19050672D02*
X60920276Y-19629328D01*
X60959724Y-59690672D02*
X60920276Y-60269328D01*
X55769462Y-60301185D02*
X54560538Y-62198815D01*
X60959724Y-81280672D02*
X60920276Y-81859328D01*
X55769462Y-81891185D02*
X54560538Y-83788815D01*
X74819462Y-19661185D02*
X73610538Y-21558815D01*
X80009724Y-19050672D02*
X79970276Y-19629328D01*
X80009724Y-39954873D02*
X79970276Y-40533529D01*
X74819462Y-40565386D02*
X73610538Y-42463016D01*
X74819462Y-60301185D02*
X73610538Y-62198815D01*
X80009724Y-59690672D02*
X79970276Y-60269328D01*
X80009724Y-81280672D02*
X79970276Y-81859328D01*
X74819462Y-81891185D02*
X73610538Y-83788815D01*
D14*
X73660000Y-60960000D03*
X66040000Y-34290000D03*
X67310000Y-54610000D03*
X54610000Y-54610000D03*
X54610000Y-54610000D03*
X54610000Y-54610000D03*
X33020000Y-62230000D03*
X33020000Y-62230000D03*
D15*
X53682890Y-61250000D02*
X55165000Y-61250000D01*
X17172895Y-60954801D02*
X53387691Y-60954801D01*
X16515199Y-60297105D02*
X17172895Y-60954801D01*
X16515199Y-59082895D02*
X16515199Y-60297105D01*
X19044801Y-55885199D02*
X19712895Y-55885199D01*
X53387691Y-60954801D02*
X53682890Y-61250000D01*
X19712895Y-55885199D02*
X16515199Y-59082895D01*
X17780000Y-57150000D02*
X19044801Y-55885199D01*
X19044801Y-58425199D02*
X18719799Y-58750201D01*
X73660000Y-60960000D02*
X72778556Y-61841444D01*
X73309657Y-19704657D02*
X73309657Y-16159657D01*
X74215000Y-20610000D02*
X73309657Y-19704657D01*
X73309657Y-16159657D02*
X72390000Y-15240000D01*
X72390000Y-15240000D02*
X45720000Y-15240000D01*
X18719799Y-58750201D02*
X17780000Y-59690000D01*
X20162904Y-57307096D02*
X18719799Y-58750201D01*
X20162904Y-40797096D02*
X20162904Y-57307096D01*
X45720000Y-15240000D02*
X20162904Y-40797096D01*
X53340000Y-33140000D02*
X53340000Y-34290000D01*
X53415001Y-33064999D02*
X53340000Y-33140000D01*
X64814999Y-33064999D02*
X53415001Y-33064999D01*
X66040000Y-34290000D02*
X64814999Y-33064999D01*
X66084999Y-55835001D02*
X67310000Y-54610000D01*
X54685001Y-55835001D02*
X66084999Y-55835001D01*
X54610000Y-54610000D02*
X54610000Y-55760000D01*
X54610000Y-55760000D02*
X54685001Y-55835001D01*
X41790000Y-62230000D02*
X53340000Y-73780000D01*
X33020000Y-62230000D02*
X41790000Y-62230000D01*
X53415001Y-73704999D02*
X53340000Y-73780000D01*
X70014999Y-73704999D02*
X53415001Y-73704999D01*
X71240000Y-74930000D02*
X70014999Y-73704999D01*
X53340000Y-73780000D02*
X53340000Y-74930000D01*
X72390000Y-74930000D02*
X71240000Y-74930000D01*
X53340000Y-96640000D02*
X53340000Y-97790000D01*
X70014999Y-96564999D02*
X53415001Y-96564999D01*
X53415001Y-96564999D02*
X53340000Y-96640000D01*
X71240000Y-97790000D02*
X70014999Y-96564999D01*
X72390000Y-97790000D02*
X71240000Y-97790000D01*
X80010000Y-40264201D02*
X79990000Y-40244201D01*
X80010000Y-54610000D02*
X80010000Y-40264201D01*
X79990000Y-74910000D02*
X80010000Y-74930000D01*
X79990000Y-59980000D02*
X79990000Y-74910000D01*
X79990000Y-97770000D02*
X80010000Y-97790000D01*
X79990000Y-81570000D02*
X79990000Y-97770000D01*
M02*
