G04 #@! TF.GenerationSoftware,KiCad,Pcbnew,5.1.5-5.1.5*
G04 #@! TF.CreationDate,2020-03-08T16:14:12+01:00*
G04 #@! TF.ProjectId,pcb,7063622e-6b69-4636-9164-5f7063625858,rev?*
G04 #@! TF.SameCoordinates,Original*
G04 #@! TF.FileFunction,Legend,Top*
G04 #@! TF.FilePolarity,Positive*
%FSLAX46Y46*%
G04 Gerber Fmt 4.6, Leading zero omitted, Abs format (unit mm)*
G04 Created by KiCad (PCBNEW 5.1.5-5.1.5) date 2020-03-08 16:14:12*
%MOMM*%
%LPD*%
G04 APERTURE LIST*
%ADD10C,0.120000*%
%ADD11C,0.381000*%
%ADD12C,0.127000*%
%ADD13C,0.150000*%
G04 APERTURE END LIST*
D10*
X55700000Y-53470000D02*
X55700000Y-53140000D01*
X55700000Y-53140000D02*
X61140000Y-53140000D01*
X61140000Y-53140000D02*
X61140000Y-53470000D01*
X55700000Y-55750000D02*
X55700000Y-56080000D01*
X55700000Y-56080000D02*
X61140000Y-56080000D01*
X61140000Y-56080000D02*
X61140000Y-55750000D01*
X56600000Y-53140000D02*
X56600000Y-56080000D01*
X56720000Y-53140000D02*
X56720000Y-56080000D01*
X56480000Y-53140000D02*
X56480000Y-56080000D01*
X55210000Y-32820000D02*
X55210000Y-35760000D01*
X55450000Y-32820000D02*
X55450000Y-35760000D01*
X55330000Y-32820000D02*
X55330000Y-35760000D01*
X59870000Y-35760000D02*
X59870000Y-35430000D01*
X54430000Y-35760000D02*
X59870000Y-35760000D01*
X54430000Y-35430000D02*
X54430000Y-35760000D01*
X59870000Y-32820000D02*
X59870000Y-33150000D01*
X54430000Y-32820000D02*
X59870000Y-32820000D01*
X54430000Y-33150000D02*
X54430000Y-32820000D01*
X55210000Y-73460000D02*
X55210000Y-76400000D01*
X55450000Y-73460000D02*
X55450000Y-76400000D01*
X55330000Y-73460000D02*
X55330000Y-76400000D01*
X59870000Y-76400000D02*
X59870000Y-76070000D01*
X54430000Y-76400000D02*
X59870000Y-76400000D01*
X54430000Y-76070000D02*
X54430000Y-76400000D01*
X59870000Y-73460000D02*
X59870000Y-73790000D01*
X54430000Y-73460000D02*
X59870000Y-73460000D01*
X54430000Y-73790000D02*
X54430000Y-73460000D01*
X54430000Y-96650000D02*
X54430000Y-96320000D01*
X54430000Y-96320000D02*
X59870000Y-96320000D01*
X59870000Y-96320000D02*
X59870000Y-96650000D01*
X54430000Y-98930000D02*
X54430000Y-99260000D01*
X54430000Y-99260000D02*
X59870000Y-99260000D01*
X59870000Y-99260000D02*
X59870000Y-98930000D01*
X55330000Y-96320000D02*
X55330000Y-99260000D01*
X55450000Y-96320000D02*
X55450000Y-99260000D01*
X55210000Y-96320000D02*
X55210000Y-99260000D01*
X74260000Y-32820000D02*
X74260000Y-35760000D01*
X74500000Y-32820000D02*
X74500000Y-35760000D01*
X74380000Y-32820000D02*
X74380000Y-35760000D01*
X78920000Y-35760000D02*
X78920000Y-35430000D01*
X73480000Y-35760000D02*
X78920000Y-35760000D01*
X73480000Y-35430000D02*
X73480000Y-35760000D01*
X78920000Y-32820000D02*
X78920000Y-33150000D01*
X73480000Y-32820000D02*
X78920000Y-32820000D01*
X73480000Y-33150000D02*
X73480000Y-32820000D01*
X73480000Y-53470000D02*
X73480000Y-53140000D01*
X73480000Y-53140000D02*
X78920000Y-53140000D01*
X78920000Y-53140000D02*
X78920000Y-53470000D01*
X73480000Y-55750000D02*
X73480000Y-56080000D01*
X73480000Y-56080000D02*
X78920000Y-56080000D01*
X78920000Y-56080000D02*
X78920000Y-55750000D01*
X74380000Y-53140000D02*
X74380000Y-56080000D01*
X74500000Y-53140000D02*
X74500000Y-56080000D01*
X74260000Y-53140000D02*
X74260000Y-56080000D01*
X74260000Y-73460000D02*
X74260000Y-76400000D01*
X74500000Y-73460000D02*
X74500000Y-76400000D01*
X74380000Y-73460000D02*
X74380000Y-76400000D01*
X78920000Y-76400000D02*
X78920000Y-76070000D01*
X73480000Y-76400000D02*
X78920000Y-76400000D01*
X73480000Y-76070000D02*
X73480000Y-76400000D01*
X78920000Y-73460000D02*
X78920000Y-73790000D01*
X73480000Y-73460000D02*
X78920000Y-73460000D01*
X73480000Y-73790000D02*
X73480000Y-73460000D01*
X73480000Y-96650000D02*
X73480000Y-96320000D01*
X73480000Y-96320000D02*
X78920000Y-96320000D01*
X78920000Y-96320000D02*
X78920000Y-96650000D01*
X73480000Y-98930000D02*
X73480000Y-99260000D01*
X73480000Y-99260000D02*
X78920000Y-99260000D01*
X78920000Y-99260000D02*
X78920000Y-98930000D01*
X74380000Y-96320000D02*
X74380000Y-99260000D01*
X74500000Y-96320000D02*
X74500000Y-99260000D01*
X74260000Y-96320000D02*
X74260000Y-99260000D01*
D11*
X52504201Y-38684201D02*
X54282201Y-38684201D01*
X63426201Y-38684201D02*
X65204201Y-38684201D01*
X65204201Y-38684201D02*
X65204201Y-40462201D01*
X65204201Y-49606201D02*
X65204201Y-51384201D01*
X65204201Y-51384201D02*
X63426201Y-51384201D01*
X54282201Y-51384201D02*
X52504201Y-51384201D01*
X52504201Y-51384201D02*
X52504201Y-49606201D01*
X52504201Y-40462201D02*
X52504201Y-38684201D01*
X52070000Y-17780000D02*
X53848000Y-17780000D01*
X62992000Y-17780000D02*
X64770000Y-17780000D01*
X64770000Y-17780000D02*
X64770000Y-19558000D01*
X64770000Y-28702000D02*
X64770000Y-30480000D01*
X64770000Y-30480000D02*
X62992000Y-30480000D01*
X53848000Y-30480000D02*
X52070000Y-30480000D01*
X52070000Y-30480000D02*
X52070000Y-28702000D01*
X52070000Y-19558000D02*
X52070000Y-17780000D01*
X52070000Y-60198000D02*
X52070000Y-58420000D01*
X52070000Y-71120000D02*
X52070000Y-69342000D01*
X53848000Y-71120000D02*
X52070000Y-71120000D01*
X64770000Y-71120000D02*
X62992000Y-71120000D01*
X64770000Y-69342000D02*
X64770000Y-71120000D01*
X64770000Y-58420000D02*
X64770000Y-60198000D01*
X62992000Y-58420000D02*
X64770000Y-58420000D01*
X52070000Y-58420000D02*
X53848000Y-58420000D01*
X52070000Y-81788000D02*
X52070000Y-80010000D01*
X52070000Y-92710000D02*
X52070000Y-90932000D01*
X53848000Y-92710000D02*
X52070000Y-92710000D01*
X64770000Y-92710000D02*
X62992000Y-92710000D01*
X64770000Y-90932000D02*
X64770000Y-92710000D01*
X64770000Y-80010000D02*
X64770000Y-81788000D01*
X62992000Y-80010000D02*
X64770000Y-80010000D01*
X52070000Y-80010000D02*
X53848000Y-80010000D01*
X71120000Y-17780000D02*
X72898000Y-17780000D01*
X82042000Y-17780000D02*
X83820000Y-17780000D01*
X83820000Y-17780000D02*
X83820000Y-19558000D01*
X83820000Y-28702000D02*
X83820000Y-30480000D01*
X83820000Y-30480000D02*
X82042000Y-30480000D01*
X72898000Y-30480000D02*
X71120000Y-30480000D01*
X71120000Y-30480000D02*
X71120000Y-28702000D01*
X71120000Y-19558000D02*
X71120000Y-17780000D01*
X71120000Y-40462201D02*
X71120000Y-38684201D01*
X71120000Y-51384201D02*
X71120000Y-49606201D01*
X72898000Y-51384201D02*
X71120000Y-51384201D01*
X83820000Y-51384201D02*
X82042000Y-51384201D01*
X83820000Y-49606201D02*
X83820000Y-51384201D01*
X83820000Y-38684201D02*
X83820000Y-40462201D01*
X82042000Y-38684201D02*
X83820000Y-38684201D01*
X71120000Y-38684201D02*
X72898000Y-38684201D01*
X71120000Y-58420000D02*
X72898000Y-58420000D01*
X82042000Y-58420000D02*
X83820000Y-58420000D01*
X83820000Y-58420000D02*
X83820000Y-60198000D01*
X83820000Y-69342000D02*
X83820000Y-71120000D01*
X83820000Y-71120000D02*
X82042000Y-71120000D01*
X72898000Y-71120000D02*
X71120000Y-71120000D01*
X71120000Y-71120000D02*
X71120000Y-69342000D01*
X71120000Y-60198000D02*
X71120000Y-58420000D01*
X71120000Y-81788000D02*
X71120000Y-80010000D01*
X71120000Y-92710000D02*
X71120000Y-90932000D01*
X72898000Y-92710000D02*
X71120000Y-92710000D01*
X83820000Y-92710000D02*
X82042000Y-92710000D01*
X83820000Y-90932000D02*
X83820000Y-92710000D01*
X83820000Y-80010000D02*
X83820000Y-81788000D01*
X82042000Y-80010000D02*
X83820000Y-80010000D01*
X71120000Y-80010000D02*
X72898000Y-80010000D01*
D12*
X25153257Y-39326457D02*
X25240342Y-39355485D01*
X25269371Y-39384514D01*
X25298400Y-39442571D01*
X25298400Y-39529657D01*
X25269371Y-39587714D01*
X25240342Y-39616742D01*
X25182285Y-39645771D01*
X24950057Y-39645771D01*
X24950057Y-39036171D01*
X25153257Y-39036171D01*
X25211314Y-39065200D01*
X25240342Y-39094228D01*
X25269371Y-39152285D01*
X25269371Y-39210342D01*
X25240342Y-39268400D01*
X25211314Y-39297428D01*
X25153257Y-39326457D01*
X24950057Y-39326457D01*
X25878971Y-39645771D02*
X25530628Y-39645771D01*
X25704800Y-39645771D02*
X25704800Y-39036171D01*
X25646742Y-39123257D01*
X25588685Y-39181314D01*
X25530628Y-39210342D01*
X20334514Y-70096742D02*
X20421600Y-70125771D01*
X20566742Y-70125771D01*
X20624800Y-70096742D01*
X20653828Y-70067714D01*
X20682857Y-70009657D01*
X20682857Y-69951600D01*
X20653828Y-69893542D01*
X20624800Y-69864514D01*
X20566742Y-69835485D01*
X20450628Y-69806457D01*
X20392571Y-69777428D01*
X20363542Y-69748400D01*
X20334514Y-69690342D01*
X20334514Y-69632285D01*
X20363542Y-69574228D01*
X20392571Y-69545200D01*
X20450628Y-69516171D01*
X20595771Y-69516171D01*
X20682857Y-69545200D01*
X20944114Y-70125771D02*
X20944114Y-69516171D01*
X21176342Y-69516171D01*
X21234400Y-69545200D01*
X21263428Y-69574228D01*
X21292457Y-69632285D01*
X21292457Y-69719371D01*
X21263428Y-69777428D01*
X21234400Y-69806457D01*
X21176342Y-69835485D01*
X20944114Y-69835485D01*
X21524685Y-69951600D02*
X21814971Y-69951600D01*
X21466628Y-70125771D02*
X21669828Y-69516171D01*
X21873028Y-70125771D01*
X22424571Y-70125771D02*
X22221371Y-69835485D01*
X22076228Y-70125771D02*
X22076228Y-69516171D01*
X22308457Y-69516171D01*
X22366514Y-69545200D01*
X22395542Y-69574228D01*
X22424571Y-69632285D01*
X22424571Y-69719371D01*
X22395542Y-69777428D01*
X22366514Y-69806457D01*
X22308457Y-69835485D01*
X22076228Y-69835485D01*
X22685828Y-70125771D02*
X22685828Y-69516171D01*
X23034171Y-70125771D02*
X22772914Y-69777428D01*
X23034171Y-69516171D02*
X22685828Y-69864514D01*
X23498628Y-69806457D02*
X23295428Y-69806457D01*
X23295428Y-70125771D02*
X23295428Y-69516171D01*
X23585714Y-69516171D01*
X23817942Y-69516171D02*
X23817942Y-70009657D01*
X23846971Y-70067714D01*
X23876000Y-70096742D01*
X23934057Y-70125771D01*
X24050171Y-70125771D01*
X24108228Y-70096742D01*
X24137257Y-70067714D01*
X24166285Y-70009657D01*
X24166285Y-69516171D01*
X24456571Y-70125771D02*
X24456571Y-69516171D01*
X24804914Y-70125771D01*
X24804914Y-69516171D01*
X24950057Y-70183828D02*
X25414514Y-70183828D01*
X25559657Y-70125771D02*
X25559657Y-69516171D01*
X25791885Y-69516171D01*
X25849942Y-69545200D01*
X25878971Y-69574228D01*
X25908000Y-69632285D01*
X25908000Y-69719371D01*
X25878971Y-69777428D01*
X25849942Y-69806457D01*
X25791885Y-69835485D01*
X25559657Y-69835485D01*
X26517600Y-70125771D02*
X26314400Y-69835485D01*
X26169257Y-70125771D02*
X26169257Y-69516171D01*
X26401485Y-69516171D01*
X26459542Y-69545200D01*
X26488571Y-69574228D01*
X26517600Y-69632285D01*
X26517600Y-69719371D01*
X26488571Y-69777428D01*
X26459542Y-69806457D01*
X26401485Y-69835485D01*
X26169257Y-69835485D01*
X26894971Y-69516171D02*
X27011085Y-69516171D01*
X27069142Y-69545200D01*
X27127200Y-69603257D01*
X27156228Y-69719371D01*
X27156228Y-69922571D01*
X27127200Y-70038685D01*
X27069142Y-70096742D01*
X27011085Y-70125771D01*
X26894971Y-70125771D01*
X26836914Y-70096742D01*
X26778857Y-70038685D01*
X26749828Y-69922571D01*
X26749828Y-69719371D01*
X26778857Y-69603257D01*
X26836914Y-69545200D01*
X26894971Y-69516171D01*
X27272342Y-70183828D02*
X27736800Y-70183828D01*
X27881942Y-70125771D02*
X27881942Y-69516171D01*
X28085142Y-69951600D01*
X28288342Y-69516171D01*
X28288342Y-70125771D01*
X28578628Y-70125771D02*
X28578628Y-69516171D01*
X29217257Y-70067714D02*
X29188228Y-70096742D01*
X29101142Y-70125771D01*
X29043085Y-70125771D01*
X28956000Y-70096742D01*
X28897942Y-70038685D01*
X28868914Y-69980628D01*
X28839885Y-69864514D01*
X28839885Y-69777428D01*
X28868914Y-69661314D01*
X28897942Y-69603257D01*
X28956000Y-69545200D01*
X29043085Y-69516171D01*
X29101142Y-69516171D01*
X29188228Y-69545200D01*
X29217257Y-69574228D01*
X29826857Y-70125771D02*
X29623657Y-69835485D01*
X29478514Y-70125771D02*
X29478514Y-69516171D01*
X29710742Y-69516171D01*
X29768800Y-69545200D01*
X29797828Y-69574228D01*
X29826857Y-69632285D01*
X29826857Y-69719371D01*
X29797828Y-69777428D01*
X29768800Y-69806457D01*
X29710742Y-69835485D01*
X29478514Y-69835485D01*
X30204228Y-69516171D02*
X30320342Y-69516171D01*
X30378400Y-69545200D01*
X30436457Y-69603257D01*
X30465485Y-69719371D01*
X30465485Y-69922571D01*
X30436457Y-70038685D01*
X30378400Y-70096742D01*
X30320342Y-70125771D01*
X30204228Y-70125771D01*
X30146171Y-70096742D01*
X30088114Y-70038685D01*
X30059085Y-69922571D01*
X30059085Y-69719371D01*
X30088114Y-69603257D01*
X30146171Y-69545200D01*
X30204228Y-69516171D01*
D13*
X57681904Y-52592380D02*
X57681904Y-51592380D01*
X57920000Y-51592380D01*
X58062857Y-51640000D01*
X58158095Y-51735238D01*
X58205714Y-51830476D01*
X58253333Y-52020952D01*
X58253333Y-52163809D01*
X58205714Y-52354285D01*
X58158095Y-52449523D01*
X58062857Y-52544761D01*
X57920000Y-52592380D01*
X57681904Y-52592380D01*
X58634285Y-51687619D02*
X58681904Y-51640000D01*
X58777142Y-51592380D01*
X59015238Y-51592380D01*
X59110476Y-51640000D01*
X59158095Y-51687619D01*
X59205714Y-51782857D01*
X59205714Y-51878095D01*
X59158095Y-52020952D01*
X58586666Y-52592380D01*
X59205714Y-52592380D01*
X54348095Y-53162380D02*
X54348095Y-52162380D01*
X54919523Y-53162380D02*
X54490952Y-52590952D01*
X54919523Y-52162380D02*
X54348095Y-52733809D01*
X56411904Y-32272380D02*
X56411904Y-31272380D01*
X56650000Y-31272380D01*
X56792857Y-31320000D01*
X56888095Y-31415238D01*
X56935714Y-31510476D01*
X56983333Y-31700952D01*
X56983333Y-31843809D01*
X56935714Y-32034285D01*
X56888095Y-32129523D01*
X56792857Y-32224761D01*
X56650000Y-32272380D01*
X56411904Y-32272380D01*
X57935714Y-32272380D02*
X57364285Y-32272380D01*
X57650000Y-32272380D02*
X57650000Y-31272380D01*
X57554761Y-31415238D01*
X57459523Y-31510476D01*
X57364285Y-31558095D01*
X53078095Y-32842380D02*
X53078095Y-31842380D01*
X53649523Y-32842380D02*
X53220952Y-32270952D01*
X53649523Y-31842380D02*
X53078095Y-32413809D01*
X56411904Y-72912380D02*
X56411904Y-71912380D01*
X56650000Y-71912380D01*
X56792857Y-71960000D01*
X56888095Y-72055238D01*
X56935714Y-72150476D01*
X56983333Y-72340952D01*
X56983333Y-72483809D01*
X56935714Y-72674285D01*
X56888095Y-72769523D01*
X56792857Y-72864761D01*
X56650000Y-72912380D01*
X56411904Y-72912380D01*
X57316666Y-71912380D02*
X57935714Y-71912380D01*
X57602380Y-72293333D01*
X57745238Y-72293333D01*
X57840476Y-72340952D01*
X57888095Y-72388571D01*
X57935714Y-72483809D01*
X57935714Y-72721904D01*
X57888095Y-72817142D01*
X57840476Y-72864761D01*
X57745238Y-72912380D01*
X57459523Y-72912380D01*
X57364285Y-72864761D01*
X57316666Y-72817142D01*
X53078095Y-73482380D02*
X53078095Y-72482380D01*
X53649523Y-73482380D02*
X53220952Y-72910952D01*
X53649523Y-72482380D02*
X53078095Y-73053809D01*
X56411904Y-95772380D02*
X56411904Y-94772380D01*
X56650000Y-94772380D01*
X56792857Y-94820000D01*
X56888095Y-94915238D01*
X56935714Y-95010476D01*
X56983333Y-95200952D01*
X56983333Y-95343809D01*
X56935714Y-95534285D01*
X56888095Y-95629523D01*
X56792857Y-95724761D01*
X56650000Y-95772380D01*
X56411904Y-95772380D01*
X57840476Y-95105714D02*
X57840476Y-95772380D01*
X57602380Y-94724761D02*
X57364285Y-95439047D01*
X57983333Y-95439047D01*
X53078095Y-96342380D02*
X53078095Y-95342380D01*
X53649523Y-96342380D02*
X53220952Y-95770952D01*
X53649523Y-95342380D02*
X53078095Y-95913809D01*
X75461904Y-32272380D02*
X75461904Y-31272380D01*
X75700000Y-31272380D01*
X75842857Y-31320000D01*
X75938095Y-31415238D01*
X75985714Y-31510476D01*
X76033333Y-31700952D01*
X76033333Y-31843809D01*
X75985714Y-32034285D01*
X75938095Y-32129523D01*
X75842857Y-32224761D01*
X75700000Y-32272380D01*
X75461904Y-32272380D01*
X76938095Y-31272380D02*
X76461904Y-31272380D01*
X76414285Y-31748571D01*
X76461904Y-31700952D01*
X76557142Y-31653333D01*
X76795238Y-31653333D01*
X76890476Y-31700952D01*
X76938095Y-31748571D01*
X76985714Y-31843809D01*
X76985714Y-32081904D01*
X76938095Y-32177142D01*
X76890476Y-32224761D01*
X76795238Y-32272380D01*
X76557142Y-32272380D01*
X76461904Y-32224761D01*
X76414285Y-32177142D01*
X72128095Y-32842380D02*
X72128095Y-31842380D01*
X72699523Y-32842380D02*
X72270952Y-32270952D01*
X72699523Y-31842380D02*
X72128095Y-32413809D01*
X75461904Y-52592380D02*
X75461904Y-51592380D01*
X75700000Y-51592380D01*
X75842857Y-51640000D01*
X75938095Y-51735238D01*
X75985714Y-51830476D01*
X76033333Y-52020952D01*
X76033333Y-52163809D01*
X75985714Y-52354285D01*
X75938095Y-52449523D01*
X75842857Y-52544761D01*
X75700000Y-52592380D01*
X75461904Y-52592380D01*
X76890476Y-51592380D02*
X76700000Y-51592380D01*
X76604761Y-51640000D01*
X76557142Y-51687619D01*
X76461904Y-51830476D01*
X76414285Y-52020952D01*
X76414285Y-52401904D01*
X76461904Y-52497142D01*
X76509523Y-52544761D01*
X76604761Y-52592380D01*
X76795238Y-52592380D01*
X76890476Y-52544761D01*
X76938095Y-52497142D01*
X76985714Y-52401904D01*
X76985714Y-52163809D01*
X76938095Y-52068571D01*
X76890476Y-52020952D01*
X76795238Y-51973333D01*
X76604761Y-51973333D01*
X76509523Y-52020952D01*
X76461904Y-52068571D01*
X76414285Y-52163809D01*
X72128095Y-53162380D02*
X72128095Y-52162380D01*
X72699523Y-53162380D02*
X72270952Y-52590952D01*
X72699523Y-52162380D02*
X72128095Y-52733809D01*
X75461904Y-72912380D02*
X75461904Y-71912380D01*
X75700000Y-71912380D01*
X75842857Y-71960000D01*
X75938095Y-72055238D01*
X75985714Y-72150476D01*
X76033333Y-72340952D01*
X76033333Y-72483809D01*
X75985714Y-72674285D01*
X75938095Y-72769523D01*
X75842857Y-72864761D01*
X75700000Y-72912380D01*
X75461904Y-72912380D01*
X76366666Y-71912380D02*
X77033333Y-71912380D01*
X76604761Y-72912380D01*
X72128095Y-73482380D02*
X72128095Y-72482380D01*
X72699523Y-73482380D02*
X72270952Y-72910952D01*
X72699523Y-72482380D02*
X72128095Y-73053809D01*
X75461904Y-95772380D02*
X75461904Y-94772380D01*
X75700000Y-94772380D01*
X75842857Y-94820000D01*
X75938095Y-94915238D01*
X75985714Y-95010476D01*
X76033333Y-95200952D01*
X76033333Y-95343809D01*
X75985714Y-95534285D01*
X75938095Y-95629523D01*
X75842857Y-95724761D01*
X75700000Y-95772380D01*
X75461904Y-95772380D01*
X76604761Y-95200952D02*
X76509523Y-95153333D01*
X76461904Y-95105714D01*
X76414285Y-95010476D01*
X76414285Y-94962857D01*
X76461904Y-94867619D01*
X76509523Y-94820000D01*
X76604761Y-94772380D01*
X76795238Y-94772380D01*
X76890476Y-94820000D01*
X76938095Y-94867619D01*
X76985714Y-94962857D01*
X76985714Y-95010476D01*
X76938095Y-95105714D01*
X76890476Y-95153333D01*
X76795238Y-95200952D01*
X76604761Y-95200952D01*
X76509523Y-95248571D01*
X76461904Y-95296190D01*
X76414285Y-95391428D01*
X76414285Y-95581904D01*
X76461904Y-95677142D01*
X76509523Y-95724761D01*
X76604761Y-95772380D01*
X76795238Y-95772380D01*
X76890476Y-95724761D01*
X76938095Y-95677142D01*
X76985714Y-95581904D01*
X76985714Y-95391428D01*
X76938095Y-95296190D01*
X76890476Y-95248571D01*
X76795238Y-95200952D01*
X72128095Y-96342380D02*
X72128095Y-95342380D01*
X72699523Y-96342380D02*
X72270952Y-95770952D01*
X72699523Y-95342380D02*
X72128095Y-95913809D01*
M02*
